<?xml version="1.0" encoding="utf-8"?>
<!-- Generator: Adobe Illustrator 20.1.0, SVG Export Plug-In . SVG Version: 6.00 Build 0)  -->
<svg version="1.1" xmlns="http://www.w3.org/2000/svg" xmlns:xlink="http://www.w3.org/1999/xlink" x="0px" y="0px"
	 width="750" height="500" viewBox="0 0 750 500" style="enable-background:new 0 0 750 500;" xml:space="preserve">
<style type="text/css">
	.st0{opacity:0.5;}
	.st1{clip-path:url(#SVGID_2_);}
	.st2{fill:#009BDE;}
	.st3{clip-path:url(#SVGID_4_);}
	.st4{fill:none;stroke:#009BDE;stroke-width:2;stroke-miterlimit:10;}
	.st5{clip-path:url(#SVGID_6_);}
	.st6{clip-path:url(#SVGID_8_);}
	.st7{clip-path:url(#SVGID_10_);}
	.st8{fill:none;stroke:#009BDE;stroke-width:2;stroke-miterlimit:10;}
	.st9{fill:none;stroke:#009BDE;stroke-width:4;stroke-linecap:round;stroke-linejoin:round;}
	.st10{fill:none;stroke:#009BDE;stroke-width:4;stroke-linecap:round;stroke-linejoin:round;stroke-dasharray:0,8.5;}
	.st11{fill:none;stroke:#009BDE;stroke-width:3;stroke-linecap:round;stroke-miterlimit:10;}
	.st12{fill:#009BDE;}
	.st13{fill:none;stroke:#009BDE;stroke-width:2;stroke-miterlimit:10;}
	.st14{fill:#009BDE;}
	.st15{fill:none;stroke:#009BDE;stroke-width:2;stroke-miterlimit:10;}
	.st16{fill:none;stroke:#009BDE;stroke-width:4;stroke-miterlimit:10;}
	.st17{fill:none;stroke:#009BDE;stroke-width:2;stroke-miterlimit:10;}
	.st18{fill:none;stroke:#009BDE;stroke-width:2;stroke-linecap:round;stroke-miterlimit:10;}
	.st19{fill:none;stroke:#009BDE;stroke-width:2;stroke-linecap:round;stroke-linejoin:round;stroke-miterlimit:10;}
	.st20{fill:none;stroke:#009BDE;stroke-width:4;stroke-linecap:round;stroke-miterlimit:10;}
	.st21{fill:none;stroke:#009BDE;stroke-width:8;stroke-linecap:round;stroke-miterlimit:10;}
	.st22{fill:none;stroke:#009BDE;stroke-width:9;stroke-linecap:round;stroke-linejoin:round;stroke-miterlimit:10;}
	.st23{fill:none;stroke:#009BDE;stroke-width:8;stroke-linecap:round;stroke-miterlimit:10;}
	.st24{fill:#009BDE;}
	.st25{fill:none;stroke:#009BDE;stroke-miterlimit:10;}
	.st26{fill:none;stroke:#009BDE;stroke-width:5;stroke-linecap:round;stroke-linejoin:round;stroke-miterlimit:10;}
</style>
<g id="BACKGROUND">
</g>
<g id="OBJECTS">
	<g class="st0">
		<defs>
			<rect id="SVGID_1_" class="st0" width="750" height="500"/>
		</defs>
		<clipPath id="SVGID_2_">
			<use xlink:href="#SVGID_1_"  style="overflow:visible;"/>
		</clipPath>
		<g class="st1">
			<circle class="st2" cx="319.3" cy="312.1" r="51.1"/>
			<circle class="st2" cx="705.1" cy="500" r="81.7"/>
			<circle class="st2" cx="81.7" cy="0" r="81.7"/>
			<g>
				<defs>
					<circle id="SVGID_3_" cx="265.5" cy="249.9" r="81.7"/>
				</defs>
				<clipPath id="SVGID_4_">
					<use xlink:href="#SVGID_3_"  style="overflow:visible;"/>
				</clipPath>
				<g class="st3">
					<line class="st4" x1="173.5" y1="34.9" x2="362.2" y2="223.6"/>
					<line class="st4" x1="173.5" y1="44.3" x2="362.2" y2="233"/>
					<line class="st4" x1="173.5" y1="53.8" x2="362.2" y2="242.4"/>
					<line class="st4" x1="173.5" y1="63.2" x2="362.2" y2="251.9"/>
					<line class="st4" x1="173.5" y1="72.7" x2="362.2" y2="261.3"/>
					<line class="st4" x1="173.5" y1="82.1" x2="362.2" y2="270.8"/>
					<line class="st4" x1="173.5" y1="91.6" x2="362.2" y2="280.2"/>
					<line class="st4" x1="173.5" y1="101" x2="362.2" y2="289.7"/>
					<line class="st4" x1="173.5" y1="110.4" x2="362.2" y2="299.1"/>
					<line class="st4" x1="173.5" y1="119.9" x2="362.2" y2="308.6"/>
					<line class="st4" x1="173.5" y1="129.3" x2="362.2" y2="318"/>
					<line class="st4" x1="173.5" y1="138.8" x2="362.2" y2="327.5"/>
					<line class="st4" x1="173.5" y1="148.2" x2="362.2" y2="336.9"/>
					<line class="st4" x1="173.5" y1="157.7" x2="362.2" y2="346.3"/>
					<line class="st4" x1="173.5" y1="167.1" x2="362.2" y2="355.8"/>
					<line class="st4" x1="173.5" y1="176.6" x2="362.2" y2="365.2"/>
					<line class="st4" x1="173.5" y1="186" x2="362.2" y2="374.7"/>
					<line class="st4" x1="173.5" y1="195.5" x2="362.2" y2="384.1"/>
					<line class="st4" x1="173.5" y1="204.9" x2="362.2" y2="393.6"/>
					<line class="st4" x1="173.5" y1="214.3" x2="362.2" y2="403"/>
					<line class="st4" x1="173.5" y1="223.8" x2="362.2" y2="412.5"/>
					<line class="st4" x1="173.5" y1="233.2" x2="362.2" y2="421.9"/>
					<line class="st4" x1="173.5" y1="242.7" x2="362.2" y2="431.4"/>
					<line class="st4" x1="173.5" y1="252.1" x2="362.2" y2="440.8"/>
					<line class="st4" x1="173.5" y1="261.6" x2="362.2" y2="450.2"/>
					<line class="st4" x1="173.5" y1="271" x2="362.2" y2="459.7"/>
					<line class="st4" x1="173.5" y1="280.5" x2="362.2" y2="469.1"/>
				</g>
			</g>
			<g>
				<defs>
					<circle id="SVGID_5_" cx="479.3" cy="0" r="34.8"/>
				</defs>
				<clipPath id="SVGID_6_">
					<use xlink:href="#SVGID_5_"  style="overflow:visible;"/>
				</clipPath>
				<g class="st5">
					<line class="st4" x1="387.3" y1="-215" x2="575.9" y2="-26.3"/>
					<line class="st4" x1="387.3" y1="-205.6" x2="575.9" y2="-16.9"/>
					<line class="st4" x1="387.3" y1="-196.1" x2="575.9" y2="-7.4"/>
					<line class="st4" x1="387.3" y1="-186.7" x2="575.9" y2="2"/>
					<line class="st4" x1="387.3" y1="-177.2" x2="575.9" y2="11.4"/>
					<line class="st4" x1="387.3" y1="-167.8" x2="575.9" y2="20.9"/>
					<line class="st4" x1="387.3" y1="-158.3" x2="575.9" y2="30.3"/>
					<line class="st4" x1="387.3" y1="-148.9" x2="575.9" y2="39.8"/>
					<line class="st4" x1="387.3" y1="-139.4" x2="575.9" y2="49.2"/>
					<line class="st4" x1="387.3" y1="-130" x2="575.9" y2="58.7"/>
					<line class="st4" x1="387.3" y1="-120.6" x2="575.9" y2="68.1"/>
					<line class="st4" x1="387.3" y1="-111.1" x2="575.9" y2="77.6"/>
					<line class="st4" x1="387.3" y1="-101.7" x2="575.9" y2="87"/>
					<line class="st4" x1="387.3" y1="-92.2" x2="575.9" y2="96.5"/>
					<line class="st4" x1="387.3" y1="-82.8" x2="575.9" y2="105.9"/>
					<line class="st4" x1="387.3" y1="-73.3" x2="575.9" y2="115.3"/>
					<line class="st4" x1="387.3" y1="-63.9" x2="575.9" y2="124.8"/>
					<line class="st4" x1="387.3" y1="-54.4" x2="575.9" y2="134.2"/>
					<line class="st4" x1="387.3" y1="-45" x2="575.9" y2="143.7"/>
					<line class="st4" x1="387.3" y1="-35.5" x2="575.9" y2="153.1"/>
					<line class="st4" x1="387.3" y1="-26.1" x2="575.9" y2="162.6"/>
					<line class="st4" x1="387.3" y1="-16.7" x2="575.9" y2="172"/>
					<line class="st4" x1="387.3" y1="-7.2" x2="575.9" y2="181.5"/>
					<line class="st4" x1="387.3" y1="2.2" x2="575.9" y2="190.9"/>
					<line class="st4" x1="387.3" y1="11.7" x2="575.9" y2="200.4"/>
					<line class="st4" x1="387.3" y1="21.1" x2="575.9" y2="209.8"/>
					<line class="st4" x1="387.3" y1="30.6" x2="575.9" y2="219.2"/>
				</g>
			</g>
			<g>
				<defs>
					<circle id="SVGID_7_" cx="142.9" cy="500" r="28.3"/>
				</defs>
				<clipPath id="SVGID_8_">
					<use xlink:href="#SVGID_7_"  style="overflow:visible;"/>
				</clipPath>
				<g class="st6">
					<line class="st4" x1="50.9" y1="285" x2="239.6" y2="473.7"/>
					<line class="st4" x1="50.9" y1="294.4" x2="239.6" y2="483.1"/>
					<line class="st4" x1="50.9" y1="303.9" x2="239.6" y2="492.5"/>
					<line class="st4" x1="50.9" y1="313.3" x2="239.6" y2="502"/>
					<line class="st4" x1="50.9" y1="322.8" x2="239.6" y2="511.4"/>
					<line class="st4" x1="50.9" y1="332.2" x2="239.6" y2="520.9"/>
					<line class="st4" x1="50.9" y1="341.7" x2="239.6" y2="530.3"/>
					<line class="st4" x1="50.9" y1="351.1" x2="239.6" y2="539.8"/>
					<line class="st4" x1="50.9" y1="360.6" x2="239.6" y2="549.2"/>
					<line class="st4" x1="50.9" y1="370" x2="239.6" y2="558.7"/>
					<line class="st4" x1="50.9" y1="379.4" x2="239.6" y2="568.1"/>
					<line class="st4" x1="50.9" y1="388.9" x2="239.6" y2="577.6"/>
					<line class="st4" x1="50.9" y1="398.3" x2="239.6" y2="587"/>
					<line class="st4" x1="50.9" y1="407.8" x2="239.6" y2="596.5"/>
					<line class="st4" x1="50.9" y1="417.2" x2="239.6" y2="605.9"/>
					<line class="st4" x1="50.9" y1="426.7" x2="239.6" y2="615.3"/>
					<line class="st4" x1="50.9" y1="436.1" x2="239.6" y2="624.8"/>
					<line class="st4" x1="50.9" y1="445.6" x2="239.6" y2="634.2"/>
					<line class="st4" x1="50.9" y1="455" x2="239.6" y2="643.7"/>
					<line class="st4" x1="50.9" y1="464.5" x2="239.6" y2="653.1"/>
					<line class="st4" x1="50.9" y1="473.9" x2="239.6" y2="662.6"/>
					<line class="st4" x1="50.9" y1="483.3" x2="239.6" y2="672"/>
					<line class="st4" x1="50.9" y1="492.8" x2="239.6" y2="681.5"/>
					<line class="st4" x1="50.9" y1="502.2" x2="239.6" y2="690.9"/>
					<line class="st4" x1="50.9" y1="511.7" x2="239.6" y2="700.4"/>
					<line class="st4" x1="50.9" y1="521.1" x2="239.6" y2="709.8"/>
					<line class="st4" x1="50.9" y1="530.6" x2="239.6" y2="719.2"/>
				</g>
			</g>
			<g>
				<defs>
					<circle id="SVGID_9_" cx="623.3" cy="500" r="81.7"/>
				</defs>
				<clipPath id="SVGID_10_">
					<use xlink:href="#SVGID_9_"  style="overflow:visible;"/>
				</clipPath>
				<g class="st7">
					<line class="st8" x1="531.3" y1="285" x2="720" y2="473.7"/>
					<line class="st8" x1="531.3" y1="294.4" x2="720" y2="483.1"/>
					<line class="st8" x1="531.3" y1="303.9" x2="720" y2="492.5"/>
					<line class="st8" x1="531.3" y1="313.3" x2="720" y2="502"/>
					<line class="st8" x1="531.3" y1="322.8" x2="720" y2="511.4"/>
					<line class="st8" x1="531.3" y1="332.2" x2="720" y2="520.9"/>
					<line class="st8" x1="531.3" y1="341.7" x2="720" y2="530.3"/>
					<line class="st8" x1="531.3" y1="351.1" x2="720" y2="539.8"/>
					<line class="st8" x1="531.3" y1="360.6" x2="720" y2="549.2"/>
					<line class="st8" x1="531.3" y1="370" x2="720" y2="558.7"/>
					<line class="st8" x1="531.3" y1="379.4" x2="720" y2="568.1"/>
					<line class="st8" x1="531.3" y1="388.9" x2="720" y2="577.6"/>
					<line class="st8" x1="531.3" y1="398.3" x2="720" y2="587"/>
					<line class="st8" x1="531.3" y1="407.8" x2="720" y2="596.5"/>
					<line class="st8" x1="531.3" y1="417.2" x2="720" y2="605.9"/>
					<line class="st8" x1="531.3" y1="426.7" x2="720" y2="615.3"/>
					<line class="st8" x1="531.3" y1="436.1" x2="720" y2="624.8"/>
					<line class="st8" x1="531.3" y1="445.6" x2="720" y2="634.2"/>
					<line class="st8" x1="531.3" y1="455" x2="720" y2="643.7"/>
					<line class="st8" x1="531.3" y1="464.5" x2="720" y2="653.1"/>
					<line class="st8" x1="531.3" y1="473.9" x2="720" y2="662.6"/>
					<line class="st8" x1="531.3" y1="483.3" x2="720" y2="672"/>
					<line class="st8" x1="531.3" y1="492.8" x2="720" y2="681.5"/>
					<line class="st8" x1="531.3" y1="502.2" x2="720" y2="690.9"/>
					<line class="st8" x1="531.3" y1="511.7" x2="720" y2="700.4"/>
					<line class="st8" x1="531.3" y1="521.1" x2="720" y2="709.8"/>
					<line class="st8" x1="531.3" y1="530.6" x2="720" y2="719.2"/>
				</g>
			</g>
			<g>
				<g>
					<g>
						<line class="st9" x1="159" y1="100.4" x2="159" y2="100.4"/>
						<path class="st10" d="M159,91.9c0-1.5,0-3,0-4.3"/>
						<line class="st9" x1="159" y1="83.4" x2="159" y2="83.4"/>
						<path class="st10" d="M150.5,83.4c-1.5,0-3,0-4.3,0"/>
						<line class="st9" x1="142" y1="83.4" x2="142" y2="83.4"/>
						<path class="st10" d="M142,74.9c0-1.5,0-3,0-4.3"/>
						<line class="st9" x1="142" y1="66.4" x2="142" y2="66.4"/>
						<path class="st10" d="M133.5,66.4c-1.5,0-3,0-4.3,0"/>
						<line class="st9" x1="125" y1="66.4" x2="125" y2="66.4"/>
						<path class="st10" d="M125,57.9c0-1.5,0-3,0-4.3"/>
						<line class="st9" x1="125" y1="49.4" x2="125" y2="49.4"/>
						<path class="st10" d="M116.5,49.4c-1.5,0-3,0-4.3,0"/>
						<line class="st9" x1="108" y1="49.4" x2="108" y2="49.4"/>
						<path class="st10" d="M108,40.9c0-1.5,0-3,0-4.3"/>
						<line class="st9" x1="108" y1="32.4" x2="108" y2="32.4"/>
						<path class="st10" d="M99.5,32.4c-1.5,0-3,0-4.3,0"/>
						<line class="st9" x1="91" y1="32.4" x2="91" y2="32.4"/>
						<path class="st10" d="M91,23.9c0-1.5,0-3,0-4.3"/>
						<line class="st9" x1="91" y1="15.4" x2="91" y2="15.4"/>
						<line class="st10" x1="82.5" y1="15.4" x2="78.2" y2="15.4"/>
						<line class="st9" x1="74" y1="15.4" x2="74" y2="15.4"/>
					</g>
				</g>
				<g>
					<g>
						<line class="st9" x1="147.5" y1="111.9" x2="147.5" y2="111.9"/>
						<path class="st10" d="M147.5,103.4c0-1.5,0-3,0-4.3"/>
						<line class="st9" x1="147.5" y1="94.9" x2="147.5" y2="94.9"/>
						<path class="st10" d="M139,94.9c-1.5,0-3,0-4.3,0"/>
						<line class="st9" x1="130.5" y1="94.9" x2="130.5" y2="94.9"/>
						<path class="st10" d="M130.5,86.4c0-1.5,0-3,0-4.3"/>
						<line class="st9" x1="130.5" y1="77.9" x2="130.5" y2="77.9"/>
						<path class="st10" d="M122,77.9c-1.5,0-3,0-4.3,0"/>
						<line class="st9" x1="113.5" y1="77.9" x2="113.5" y2="77.9"/>
						<path class="st10" d="M113.5,69.4c0-1.5,0-3,0-4.3"/>
						<line class="st9" x1="113.5" y1="60.9" x2="113.5" y2="60.9"/>
						<path class="st10" d="M105,60.9c-1.5,0-3,0-4.3,0"/>
						<line class="st9" x1="96.5" y1="60.9" x2="96.5" y2="60.9"/>
						<path class="st10" d="M96.5,52.4c0-1.5,0-3,0-4.3"/>
						<line class="st9" x1="96.5" y1="43.9" x2="96.5" y2="43.9"/>
						<path class="st10" d="M88,43.9c-1.5,0-3,0-4.3,0"/>
						<line class="st9" x1="79.5" y1="43.9" x2="79.5" y2="43.9"/>
						<path class="st10" d="M79.5,35.4c0-1.5,0-3,0-4.3"/>
						<line class="st9" x1="79.5" y1="26.9" x2="79.5" y2="26.9"/>
						<line class="st10" x1="71" y1="26.9" x2="66.7" y2="26.9"/>
						<line class="st9" x1="62.5" y1="26.9" x2="62.5" y2="26.9"/>
					</g>
				</g>
				<g>
					<g>
						<line class="st9" x1="136" y1="123.4" x2="136" y2="123.4"/>
						<path class="st10" d="M136,114.9c0-1.5,0-3,0-4.3"/>
						<line class="st9" x1="136" y1="106.4" x2="136" y2="106.4"/>
						<path class="st10" d="M127.5,106.4c-1.5,0-3,0-4.3,0"/>
						<line class="st9" x1="119" y1="106.4" x2="119" y2="106.4"/>
						<path class="st10" d="M119,97.9c0-1.5,0-3,0-4.3"/>
						<line class="st9" x1="119" y1="89.4" x2="119" y2="89.4"/>
						<path class="st10" d="M110.5,89.4c-1.5,0-3,0-4.3,0"/>
						<line class="st9" x1="102" y1="89.4" x2="102" y2="89.4"/>
						<path class="st10" d="M102,80.9c0-1.5,0-3,0-4.3"/>
						<line class="st9" x1="102" y1="72.4" x2="102" y2="72.4"/>
						<path class="st10" d="M93.5,72.4c-1.5,0-3,0-4.3,0"/>
						<line class="st9" x1="85" y1="72.4" x2="85" y2="72.4"/>
						<path class="st10" d="M85,63.9c0-1.5,0-3,0-4.3"/>
						<line class="st9" x1="85" y1="55.4" x2="85" y2="55.4"/>
						<path class="st10" d="M76.5,55.4c-1.5,0-3,0-4.3,0"/>
						<line class="st9" x1="68" y1="55.4" x2="68" y2="55.4"/>
						<path class="st10" d="M68,46.9c0-1.5,0-3,0-4.3"/>
						<line class="st9" x1="68" y1="38.4" x2="68" y2="38.4"/>
						<line class="st10" x1="59.5" y1="38.4" x2="55.2" y2="38.4"/>
						<line class="st9" x1="51" y1="38.4" x2="51" y2="38.4"/>
					</g>
				</g>
			</g>
			<g>
				<g>
					<g>
						<line class="st9" x1="666.6" y1="378.2" x2="666.6" y2="378.2"/>
						<path class="st10" d="M666.6,369.7c0-1.5,0-3,0-4.3"/>
						<line class="st9" x1="666.6" y1="361.2" x2="666.6" y2="361.2"/>
						<path class="st10" d="M658.1,361.2c-1.5,0-3,0-4.3,0"/>
						<line class="st9" x1="649.6" y1="361.2" x2="649.6" y2="361.2"/>
						<path class="st10" d="M649.6,352.7c0-1.5,0-3,0-4.3"/>
						<line class="st9" x1="649.6" y1="344.2" x2="649.6" y2="344.2"/>
						<path class="st10" d="M641.1,344.2c-1.5,0-3,0-4.3,0"/>
						<line class="st9" x1="632.6" y1="344.2" x2="632.6" y2="344.2"/>
						<path class="st10" d="M632.6,335.7c0-1.5,0-3,0-4.3"/>
						<line class="st9" x1="632.6" y1="327.2" x2="632.6" y2="327.2"/>
						<path class="st10" d="M624.1,327.2c-1.5,0-3,0-4.3,0"/>
						<line class="st9" x1="615.6" y1="327.2" x2="615.6" y2="327.2"/>
						<path class="st10" d="M615.6,318.7c0-1.5,0-3,0-4.3"/>
						<line class="st9" x1="615.6" y1="310.2" x2="615.6" y2="310.2"/>
						<line class="st10" x1="607.1" y1="310.2" x2="602.8" y2="310.2"/>
						<line class="st9" x1="598.6" y1="310.2" x2="598.6" y2="310.2"/>
					</g>
				</g>
				<g>
					<g>
						<line class="st9" x1="655.1" y1="389.7" x2="655.1" y2="389.7"/>
						<path class="st10" d="M655.1,381.2c0-1.5,0-3,0-4.3"/>
						<line class="st9" x1="655.1" y1="372.7" x2="655.1" y2="372.7"/>
						<path class="st10" d="M646.6,372.7c-1.5,0-3,0-4.3,0"/>
						<line class="st9" x1="638.1" y1="372.7" x2="638.1" y2="372.7"/>
						<path class="st10" d="M638.1,364.2c0-1.5,0-3,0-4.3"/>
						<line class="st9" x1="638.1" y1="355.7" x2="638.1" y2="355.7"/>
						<path class="st10" d="M629.6,355.7c-1.5,0-3,0-4.3,0"/>
						<line class="st9" x1="621.1" y1="355.7" x2="621.1" y2="355.7"/>
						<path class="st10" d="M621.1,347.2c0-1.5,0-3,0-4.3"/>
						<line class="st9" x1="621.1" y1="338.7" x2="621.1" y2="338.7"/>
						<path class="st10" d="M612.6,338.7c-1.5,0-3,0-4.3,0"/>
						<line class="st9" x1="604.1" y1="338.7" x2="604.1" y2="338.7"/>
						<path class="st10" d="M604.1,330.2c0-1.5,0-3,0-4.3"/>
						<line class="st9" x1="604.1" y1="321.7" x2="604.1" y2="321.7"/>
						<line class="st10" x1="595.6" y1="321.7" x2="591.3" y2="321.7"/>
						<line class="st9" x1="587.1" y1="321.7" x2="587.1" y2="321.7"/>
					</g>
				</g>
				<g>
					<g>
						<line class="st9" x1="643.6" y1="401.2" x2="643.6" y2="401.2"/>
						<path class="st10" d="M643.6,392.7c0-1.5,0-3,0-4.3"/>
						<line class="st9" x1="643.6" y1="384.2" x2="643.6" y2="384.2"/>
						<path class="st10" d="M635.1,384.2c-1.5,0-3,0-4.3,0"/>
						<line class="st9" x1="626.6" y1="384.2" x2="626.6" y2="384.2"/>
						<path class="st10" d="M626.6,375.7c0-1.5,0-3,0-4.3"/>
						<line class="st9" x1="626.6" y1="367.2" x2="626.6" y2="367.2"/>
						<path class="st10" d="M618.1,367.2c-1.5,0-3,0-4.3,0"/>
						<line class="st9" x1="609.6" y1="367.2" x2="609.6" y2="367.2"/>
						<path class="st10" d="M609.6,358.7c0-1.5,0-3,0-4.3"/>
						<line class="st9" x1="609.6" y1="350.2" x2="609.6" y2="350.2"/>
						<path class="st10" d="M601.1,350.2c-1.5,0-3,0-4.3,0"/>
						<line class="st9" x1="592.6" y1="350.2" x2="592.6" y2="350.2"/>
						<path class="st10" d="M592.6,341.7c0-1.5,0-3,0-4.3"/>
						<line class="st9" x1="592.6" y1="333.2" x2="592.6" y2="333.2"/>
						<line class="st10" x1="584.1" y1="333.2" x2="579.8" y2="333.2"/>
						<line class="st9" x1="575.6" y1="333.2" x2="575.6" y2="333.2"/>
					</g>
				</g>
			</g>
			<g>
				<polyline class="st11" points="294.1,473.5 294.1,456.5 277.1,456.5 277.1,439.5 260.1,439.5 260.1,422.5 243.1,422.5 
					243.1,405.5 226.1,405.5 226.1,388.5 209.1,388.5 				"/>
				<polyline class="st11" points="282.6,485 282.6,468 265.6,468 265.6,451 248.6,451 248.6,434 231.6,434 231.6,417 214.6,417 
					214.6,400 197.6,400 				"/>
			</g>
			<polyline class="st11" points="548.1,339 548.1,322 531.1,322 531.1,305 514.1,305 514.1,288 497.1,288 497.1,271 480.1,271 
				480.1,254 463.1,254 			"/>
			<polyline class="st11" points="615.8,203.4 615.8,186.4 598.8,186.4 598.8,169.4 581.8,169.4 581.8,152.4 564.8,152.4 
				564.8,135.4 547.8,135.4 547.8,118.4 530.8,118.4 			"/>
			<polyline class="st11" points="42.5,193.1 42.5,176.1 25.5,176.1 25.5,159.1 8.5,159.1 8.5,142.1 -8.5,142.1 -8.5,125.1 
				-25.5,125.1 -25.5,108.1 -42.5,108.1 			"/>
			<polyline class="st11" points="792.5,381.5 792.5,364.5 775.5,364.5 775.5,347.5 758.5,347.5 758.5,330.5 741.5,330.5 
				741.5,313.5 724.5,313.5 724.5,296.5 707.5,296.5 			"/>
			<polyline class="st11" points="452.9,165.3 452.9,148.3 435.9,148.3 435.9,131.3 418.9,131.3 418.9,114.3 401.9,114.3 
				401.9,97.3 384.9,97.3 384.9,80.3 367.9,80.3 			"/>
			<circle class="st12" cx="113.7" cy="259.9" r="21.1"/>
			<circle class="st12" cx="329.3" cy="0" r="21.1"/>
			<g>
				<circle class="st12" cx="500.5" cy="186.8" r="3.7"/>
				<circle class="st12" cx="512" cy="198.3" r="3.7"/>
				<circle class="st12" cx="523.5" cy="209.8" r="3.7"/>
				<circle class="st12" cx="535" cy="221.3" r="3.7"/>
				<circle class="st12" cx="546.5" cy="232.8" r="3.7"/>
				<circle class="st12" cx="558" cy="244.3" r="3.7"/>
				<circle class="st12" cx="569.5" cy="255.8" r="3.7"/>
			</g>
			<g>
				<circle class="st12" cx="-11.6" cy="318.2" r="3.7"/>
				<circle class="st12" cx="-0.1" cy="329.7" r="3.7"/>
				<circle class="st12" cx="11.4" cy="341.2" r="3.7"/>
				<circle class="st12" cx="22.9" cy="352.7" r="3.7"/>
				<circle class="st12" cx="34.4" cy="364.2" r="3.7"/>
				<circle class="st12" cx="45.9" cy="375.7" r="3.7"/>
				<circle class="st12" cx="57.4" cy="387.2" r="3.7"/>
			</g>
			<g>
				<circle class="st12" cx="226.5" cy="465.5" r="3.7"/>
				<circle class="st12" cx="238" cy="477" r="3.7"/>
				<circle class="st12" cx="249.5" cy="488.5" r="3.7"/>
				<circle class="st12" cx="261" cy="500" r="3.7"/>
				<circle class="st12" cx="272.5" cy="511.5" r="3.7"/>
				<circle class="st12" cx="284" cy="523" r="3.7"/>
				<circle class="st12" cx="295.5" cy="534.5" r="3.7"/>
			</g>
			<g>
				<circle class="st12" cx="697.3" cy="18.2" r="3.7"/>
				<circle class="st12" cx="708.8" cy="29.7" r="3.7"/>
				<circle class="st12" cx="720.3" cy="41.2" r="3.7"/>
				<circle class="st12" cx="731.8" cy="52.7" r="3.7"/>
				<circle class="st12" cx="743.3" cy="64.2" r="3.7"/>
				<circle class="st12" cx="754.8" cy="75.7" r="3.7"/>
				<circle class="st12" cx="766.3" cy="87.2" r="3.7"/>
			</g>
			<g>
				<circle class="st12" cx="517.5" cy="56.8" r="2.4"/>
				<circle class="st12" cx="525" cy="64.3" r="2.4"/>
				<circle class="st12" cx="532.5" cy="71.8" r="2.4"/>
				<circle class="st12" cx="540" cy="79.2" r="2.4"/>
				<circle class="st12" cx="547.5" cy="86.7" r="2.4"/>
				<circle class="st12" cx="555" cy="94.2" r="2.4"/>
				<circle class="st12" cx="562.4" cy="101.7" r="2.4"/>
			</g>
			<g>
				<circle class="st12" cx="42.3" cy="481.2" r="2.4"/>
				<circle class="st12" cx="49.8" cy="488.7" r="2.4"/>
				<circle class="st12" cx="57.3" cy="496.2" r="2.4"/>
				<circle class="st12" cx="64.8" cy="503.7" r="2.4"/>
				<circle class="st12" cx="72.2" cy="511.1" r="2.4"/>
				<circle class="st12" cx="79.7" cy="518.6" r="2.4"/>
				<circle class="st12" cx="87.2" cy="526.1" r="2.4"/>
			</g>
			<circle class="st13" cx="491.7" cy="387.2" r="21.1"/>
			<circle class="st2" cx="668.4" cy="229" r="21.9"/>
			<g>
				<path class="st14" d="M129.2,256.3c10.5,0,19.1,8.6,19.1,19.1s-8.6,19.1-19.1,19.1c-10.5,0-19.1-8.6-19.1-19.1
					S118.7,256.3,129.2,256.3 M129.2,254.3c-11.6,0-21.1,9.4-21.1,21.1s9.4,21.1,21.1,21.1c11.6,0,21.1-9.4,21.1-21.1
					S140.9,254.3,129.2,254.3L129.2,254.3z"/>
			</g>
			<g>
				<path class="st14" d="M0,428.9c9.4,0,17.1,7.7,17.1,17.1S9.4,463.1,0,463.1s-17.1-7.7-17.1-17.1S-9.4,428.9,0,428.9 M0,424.9
					c-11.6,0-21.1,9.4-21.1,21.1s9.4,21.1,21.1,21.1s21.1-9.4,21.1-21.1S11.6,424.9,0,424.9L0,424.9z"/>
			</g>
			<g>
				<g>
					
						<ellipse transform="matrix(0.7071 -0.7071 0.7071 0.7071 55.3568 548.1838)" class="st14" cx="689.4" cy="207.3" rx="1.7" ry="1.7"/>
					
						<ellipse transform="matrix(0.7071 -0.7071 0.7071 0.7071 52.8284 554.288)" class="st14" cx="695.5" cy="213.4" rx="1.7" ry="1.7"/>
					
						<ellipse transform="matrix(0.7071 -0.7071 0.7071 0.7071 50.3009 560.3943)" class="st14" cx="701.6" cy="219.5" rx="1.7" ry="1.7"/>
					
						<ellipse transform="matrix(0.7071 -0.7071 0.7071 0.7071 47.7714 566.4965)" class="st14" cx="707.7" cy="225.6" rx="1.7" ry="1.7"/>
					
						<ellipse transform="matrix(0.7071 -0.7071 0.7071 0.7071 45.243 572.6008)" class="st14" cx="713.8" cy="231.7" rx="1.7" ry="1.7"/>
					
						<ellipse transform="matrix(0.7071 -0.7071 0.7071 0.7071 42.7145 578.705)" class="st14" cx="719.9" cy="237.8" rx="1.7" ry="1.7"/>
					
						<ellipse transform="matrix(0.7071 -0.7071 0.7071 0.7071 40.1861 584.8092)" class="st14" cx="726" cy="243.9" rx="1.7" ry="1.7"/>
					
						<ellipse transform="matrix(0.7071 -0.7071 0.7071 0.7071 37.6576 590.9135)" class="st14" cx="732.1" cy="250" rx="1.7" ry="1.7"/>
				</g>
				<g>
					
						<ellipse transform="matrix(0.7071 -0.7071 0.7071 0.7071 49.2516 545.6536)" class="st14" cx="683.3" cy="213.4" rx="1.7" ry="1.7"/>
					
						<ellipse transform="matrix(0.7071 -0.7071 0.7071 0.7071 46.7241 551.7596)" class="st14" cx="689.4" cy="219.5" rx="1.7" ry="1.7"/>
					
						<ellipse transform="matrix(0.7071 -0.7071 0.7071 0.7071 44.1956 557.8638)" class="st14" cx="695.5" cy="225.6" rx="1.7" ry="1.7"/>
					
						<ellipse transform="matrix(0.7071 -0.7071 0.7071 0.7071 41.6682 563.9701)" class="st14" cx="701.6" cy="231.7" rx="1.7" ry="1.7"/>
					
						<ellipse transform="matrix(0.7071 -0.7071 0.7071 0.7071 39.1387 570.0723)" class="st14" cx="707.7" cy="237.8" rx="1.7" ry="1.7"/>
					
						<ellipse transform="matrix(0.7071 -0.7071 0.7071 0.7071 36.6103 576.1766)" class="st14" cx="713.8" cy="243.9" rx="1.7" ry="1.7"/>
					
						<ellipse transform="matrix(0.7071 -0.7071 0.7071 0.7071 34.0818 582.2808)" class="st14" cx="719.9" cy="250" rx="1.7" ry="1.7"/>
					
						<ellipse transform="matrix(0.7071 -0.7071 0.7071 0.7071 31.5533 588.385)" class="st14" cx="726" cy="256.1" rx="1.7" ry="1.7"/>
				</g>
				<g>
					
						<ellipse transform="matrix(0.7071 -0.7071 0.7071 0.7071 43.1492 543.1288)" class="st14" cx="677.2" cy="219.5" rx="1.7" ry="1.7"/>
					
						<ellipse transform="matrix(0.7071 -0.7071 0.7071 0.7071 40.6189 549.2293)" class="st14" cx="683.3" cy="225.6" rx="1.7" ry="1.7"/>
					
						<ellipse transform="matrix(0.7071 -0.7071 0.7071 0.7071 38.0914 555.3354)" class="st14" cx="689.4" cy="231.7" rx="1.7" ry="1.7"/>
					
						<ellipse transform="matrix(0.7071 -0.7071 0.7071 0.7071 35.5629 561.4396)" class="st14" cx="695.5" cy="237.8" rx="1.7" ry="1.7"/>
					
						<ellipse transform="matrix(0.7071 -0.7071 0.7071 0.7071 33.0355 567.5459)" class="st14" cx="701.6" cy="243.9" rx="1.7" ry="1.7"/>
					
						<ellipse transform="matrix(0.7071 -0.7071 0.7071 0.7071 30.506 573.6481)" class="st14" cx="707.7" cy="250" rx="1.7" ry="1.7"/>
					
						<ellipse transform="matrix(0.7071 -0.7071 0.7071 0.7071 27.9776 579.7524)" class="st14" cx="713.8" cy="256.1" rx="1.7" ry="1.7"/>
					
						<ellipse transform="matrix(0.7071 -0.7071 0.7071 0.7071 25.4491 585.8566)" class="st14" cx="719.9" cy="262.2" rx="1.7" ry="1.7"/>
				</g>
				<g>
					
						<ellipse transform="matrix(0.7071 -0.7071 0.7071 0.7071 37.0441 540.5984)" class="st14" cx="671.1" cy="225.6" rx="1.7" ry="1.7"/>
					
						<ellipse transform="matrix(0.7071 -0.7071 0.7071 0.7071 34.5166 546.7045)" class="st14" cx="677.2" cy="231.7" rx="1.7" ry="1.7"/>
					
						<ellipse transform="matrix(0.7071 -0.7071 0.7071 0.7071 31.9863 552.8051)" class="st14" cx="683.3" cy="237.8" rx="1.7" ry="1.7"/>
					
						<ellipse transform="matrix(0.7071 -0.7071 0.7071 0.7071 29.4587 558.9112)" class="st14" cx="689.4" cy="243.9" rx="1.7" ry="1.7"/>
					
						<ellipse transform="matrix(0.7071 -0.7071 0.7071 0.7071 26.9302 565.0154)" class="st14" cx="695.5" cy="250" rx="1.7" ry="1.7"/>
					
						<ellipse transform="matrix(0.7071 -0.7071 0.7071 0.7071 24.4028 571.1217)" class="st14" cx="701.6" cy="256.1" rx="1.7" ry="1.7"/>
					
						<ellipse transform="matrix(0.7071 -0.7071 0.7071 0.7071 21.8734 577.2239)" class="st14" cx="707.7" cy="262.2" rx="1.7" ry="1.7"/>
					
						<ellipse transform="matrix(0.7071 -0.7071 0.7071 0.7071 19.3449 583.3282)" class="st14" cx="713.8" cy="268.3" rx="1.7" ry="1.7"/>
				</g>
				<g>
					
						<ellipse transform="matrix(0.7071 -0.7071 0.7071 0.7071 30.9399 538.0699)" class="st14" cx="665" cy="231.7" rx="1.7" ry="1.7"/>
					
						<ellipse transform="matrix(0.7071 -0.7071 0.7071 0.7071 28.4114 544.1743)" class="st14" cx="671.1" cy="237.8" rx="1.7" ry="1.7"/>
					
						<ellipse transform="matrix(0.7071 -0.7071 0.7071 0.7071 25.8838 550.2803)" class="st14" cx="677.2" cy="243.9" rx="1.7" ry="1.7"/>
					
						<ellipse transform="matrix(0.7071 -0.7071 0.7071 0.7071 23.3536 556.3809)" class="st14" cx="683.3" cy="250" rx="1.7" ry="1.7"/>
					
						<ellipse transform="matrix(0.7071 -0.7071 0.7071 0.7071 20.826 562.4869)" class="st14" cx="689.4" cy="256.1" rx="1.7" ry="1.7"/>
					
						<ellipse transform="matrix(0.7071 -0.7071 0.7071 0.7071 18.2976 568.5911)" class="st14" cx="695.5" cy="262.2" rx="1.7" ry="1.7"/>
					
						<ellipse transform="matrix(0.7071 -0.7071 0.7071 0.7071 15.77 574.6975)" class="st14" cx="701.6" cy="268.3" rx="1.7" ry="1.7"/>
					
						<ellipse transform="matrix(0.7071 -0.7071 0.7071 0.7071 13.2406 580.7997)" class="st14" cx="707.7" cy="274.4" rx="1.7" ry="1.7"/>
				</g>
				<g>
					
						<ellipse transform="matrix(0.7071 -0.7071 0.7071 0.7071 24.8348 535.5398)" class="st14" cx="658.9" cy="237.8" rx="1.7" ry="1.7"/>
					
						<ellipse transform="matrix(0.7071 -0.7071 0.7071 0.7071 22.3072 541.6458)" class="st14" cx="665" cy="243.9" rx="1.7" ry="1.7"/>
					
						<ellipse transform="matrix(0.7071 -0.7071 0.7071 0.7071 19.7787 547.7501)" class="st14" cx="671.1" cy="250" rx="1.7" ry="1.7"/>
					
						<ellipse transform="matrix(0.7071 -0.7071 0.7071 0.7071 17.2511 553.8561)" class="st14" cx="677.2" cy="256.1" rx="1.7" ry="1.7"/>
					
						<ellipse transform="matrix(0.7071 -0.7071 0.7071 0.7071 14.7209 559.9565)" class="st14" cx="683.3" cy="262.2" rx="1.7" ry="1.7"/>
					
						<ellipse transform="matrix(0.7071 -0.7071 0.7071 0.7071 12.1933 566.0627)" class="st14" cx="689.4" cy="268.3" rx="1.7" ry="1.7"/>
					
						<ellipse transform="matrix(0.7071 -0.7071 0.7071 0.7071 9.6649 572.1669)" class="st14" cx="695.5" cy="274.4" rx="1.7" ry="1.7"/>
					
						<ellipse transform="matrix(0.7071 -0.7071 0.7071 0.7071 7.1311 578.2589)" class="st14" cx="701.6" cy="280.5" rx="1.7" ry="1.7"/>
				</g>
				<g>
					
						<ellipse transform="matrix(0.7071 -0.7071 0.7071 0.7071 18.7314 533.0131)" class="st14" cx="652.8" cy="243.9" rx="1.7" ry="1.7"/>
					
						<ellipse transform="matrix(0.7071 -0.7071 0.7071 0.7071 16.2021 539.1155)" class="st14" cx="658.9" cy="250" rx="1.7" ry="1.7"/>
					
						<ellipse transform="matrix(0.7071 -0.7071 0.7071 0.7071 13.6744 545.2216)" class="st14" cx="665" cy="256.1" rx="1.7" ry="1.7"/>
					
						<ellipse transform="matrix(0.7071 -0.7071 0.7071 0.7071 11.146 551.3258)" class="st14" cx="671.1" cy="262.2" rx="1.7" ry="1.7"/>
					
						<ellipse transform="matrix(0.7071 -0.7071 0.7071 0.7071 8.6184 557.4319)" class="st14" cx="677.2" cy="268.3" rx="1.7" ry="1.7"/>
					
						<ellipse transform="matrix(0.7071 -0.7071 0.7071 0.7071 6.0883 563.5323)" class="st14" cx="683.3" cy="274.4" rx="1.7" ry="1.7"/>
					
						<ellipse transform="matrix(0.7071 -0.7071 0.7071 0.7071 3.5546 569.6243)" class="st14" cx="689.4" cy="280.5" rx="1.7" ry="1.7"/>
					
						<ellipse transform="matrix(0.7071 -0.7071 0.7071 0.7071 1.0321 575.7427)" class="st14" cx="695.5" cy="286.6" rx="1.7" ry="1.7"/>
				</g>
				<g>
					
						<ellipse transform="matrix(0.7071 -0.7071 0.7071 0.7071 12.6271 530.4846)" class="st14" cx="646.7" cy="250" rx="1.7" ry="1.7"/>
					
						<ellipse transform="matrix(0.7071 -0.7071 0.7071 0.7071 10.0987 536.5889)" class="st14" cx="652.8" cy="256.1" rx="1.7" ry="1.7"/>
					
						<ellipse transform="matrix(0.7071 -0.7071 0.7071 0.7071 7.5695 542.6913)" class="st14" cx="658.9" cy="262.2" rx="1.7" ry="1.7"/>
					
						<ellipse transform="matrix(0.7071 -0.7071 0.7071 0.7071 5.0417 548.7973)" class="st14" cx="665" cy="268.3" rx="1.7" ry="1.7"/>
					
						<ellipse transform="matrix(0.7071 -0.7071 0.7071 0.7071 2.5133 554.9016)" class="st14" cx="671.1" cy="274.4" rx="1.7" ry="1.7"/>
					
						<ellipse transform="matrix(0.7071 -0.7071 0.7071 0.7071 -2.016964e-02 560.9937)" class="st14" cx="677.2" cy="280.5" rx="1.7" ry="1.7"/>
					
						<ellipse transform="matrix(0.7071 -0.7071 0.7071 0.7071 -2.5444 567.1081)" class="st14" cx="683.3" cy="286.6" rx="1.7" ry="1.7"/>
					
						<ellipse transform="matrix(0.7071 -0.7071 0.7071 0.7071 -5.0721 573.2143)" class="st14" cx="689.4" cy="292.7" rx="1.7" ry="1.7"/>
				</g>
			</g>
			<g>
				<g>
					
						<ellipse transform="matrix(0.7071 -0.7071 0.7071 0.7071 -219.6881 180.602)" class="st14" cx="108.2" cy="355.5" rx="2.3" ry="2.3"/>
					
						<ellipse transform="matrix(0.7071 -0.7071 0.7071 0.7071 -223.0605 188.7408)" class="st14" cx="116.3" cy="363.6" rx="2.3" ry="2.3"/>
					
						<ellipse transform="matrix(0.7071 -0.7071 0.7071 0.7071 -226.4232 196.8611)" class="st14" cx="124.4" cy="371.8" rx="2.3" ry="2.3"/>
					
						<ellipse transform="matrix(0.7071 -0.7071 0.7071 0.7071 -229.7928 204.995)" class="st14" cx="132.6" cy="379.9" rx="2.3" ry="2.3"/>
					
						<ellipse transform="matrix(0.7071 -0.7071 0.7071 0.7071 -233.1583 213.1206)" class="st14" cx="140.7" cy="388" rx="2.3" ry="2.3"/>
					
						<ellipse transform="matrix(0.7071 -0.7071 0.7071 0.7071 -236.5225 221.2429)" class="st14" cx="148.8" cy="396.1" rx="2.3" ry="2.3"/>
					
						<ellipse transform="matrix(0.7071 -0.7071 0.7071 0.7071 -239.8949 229.3835)" class="st14" cx="156.9" cy="404.3" rx="2.3" ry="2.3"/>
					
						<ellipse transform="matrix(0.7071 -0.7071 0.7071 0.7071 -243.2563 237.4993)" class="st14" cx="165.1" cy="412.4" rx="2.3" ry="2.3"/>
				</g>
				<g>
					
						<ellipse transform="matrix(0.7071 -0.7071 0.7071 0.7071 -227.8221 177.2454)" class="st14" cx="100" cy="363.6" rx="2.3" ry="2.3"/>
					
						<ellipse transform="matrix(0.7071 -0.7071 0.7071 0.7071 -231.1832 185.3633)" class="st14" cx="108.2" cy="371.8" rx="2.3" ry="2.3"/>
					
						<ellipse transform="matrix(0.7071 -0.7071 0.7071 0.7071 -234.5559 193.5024)" class="st14" cx="116.3" cy="379.9" rx="2.3" ry="2.3"/>
					
						<ellipse transform="matrix(0.7071 -0.7071 0.7071 0.7071 -237.9184 201.6225)" class="st14" cx="124.4" cy="388" rx="2.3" ry="2.3"/>
					
						<ellipse transform="matrix(0.7071 -0.7071 0.7071 0.7071 -241.2853 209.7508)" class="st14" cx="132.6" cy="396.1" rx="2.3" ry="2.3"/>
					
						<ellipse transform="matrix(0.7071 -0.7071 0.7071 0.7071 -244.6565 217.8881)" class="st14" cx="140.7" cy="404.3" rx="2.3" ry="2.3"/>
					
						<ellipse transform="matrix(0.7071 -0.7071 0.7071 0.7071 -248.0176 226.0042)" class="st14" cx="148.8" cy="412.4" rx="2.3" ry="2.3"/>
					
						<ellipse transform="matrix(0.7071 -0.7071 0.7071 0.7071 -251.3903 234.1451)" class="st14" cx="156.9" cy="420.5" rx="2.3" ry="2.3"/>
				</g>
				<g>
					
						<ellipse transform="matrix(0.7071 -0.7071 0.7071 0.7071 -235.9445 173.8683)" class="st14" cx="91.9" cy="371.8" rx="2.3" ry="2.3"/>
					
						<ellipse transform="matrix(0.7071 -0.7071 0.7071 0.7071 -239.3175 182.007)" class="st14" cx="100" cy="379.9" rx="2.3" ry="2.3"/>
					
						<ellipse transform="matrix(0.7071 -0.7071 0.7071 0.7071 -242.6782 190.1246)" class="st14" cx="108.2" cy="388" rx="2.3" ry="2.3"/>
					
						<ellipse transform="matrix(0.7071 -0.7071 0.7071 0.7071 -246.0482 198.2584)" class="st14" cx="116.3" cy="396.1" rx="2.3" ry="2.3"/>
					
						<ellipse transform="matrix(0.7071 -0.7071 0.7071 0.7071 -249.4166 206.3897)" class="st14" cx="124.4" cy="404.3" rx="2.3" ry="2.3"/>
					
						<ellipse transform="matrix(0.7071 -0.7071 0.7071 0.7071 -252.7804 214.5122)" class="st14" cx="132.6" cy="412.4" rx="2.3" ry="2.3"/>
					
						<ellipse transform="matrix(0.7071 -0.7071 0.7071 0.7071 -256.1519 222.6497)" class="st14" cx="140.7" cy="420.5" rx="2.3" ry="2.3"/>
					
						<ellipse transform="matrix(0.7071 -0.7071 0.7071 0.7071 -259.5126 230.7655)" class="st14" cx="148.8" cy="428.6" rx="2.3" ry="2.3"/>
				</g>
				<g>
					
						<ellipse transform="matrix(0.7071 -0.7071 0.7071 0.7071 -244.0792 170.5116)" class="st14" cx="83.8" cy="379.9" rx="2.3" ry="2.3"/>
					
						<ellipse transform="matrix(0.7071 -0.7071 0.7071 0.7071 -247.4395 178.6296)" class="st14" cx="91.9" cy="388" rx="2.3" ry="2.3"/>
					
						<ellipse transform="matrix(0.7071 -0.7071 0.7071 0.7071 -250.8097 186.7632)" class="st14" cx="100" cy="396.1" rx="2.3" ry="2.3"/>
					
						<ellipse transform="matrix(0.7071 -0.7071 0.7071 0.7071 -254.1766 194.8916)" class="st14" cx="108.2" cy="404.3" rx="2.3" ry="2.3"/>
					
						<ellipse transform="matrix(0.7071 -0.7071 0.7071 0.7071 -257.5435 203.0199)" class="st14" cx="116.3" cy="412.4" rx="2.3" ry="2.3"/>
					
						<ellipse transform="matrix(0.7071 -0.7071 0.7071 0.7071 -260.9119 211.1513)" class="st14" cx="124.4" cy="420.5" rx="2.3" ry="2.3"/>
					
						<ellipse transform="matrix(0.7071 -0.7071 0.7071 0.7071 -264.2755 219.2736)" class="st14" cx="132.6" cy="428.6" rx="2.3" ry="2.3"/>
					
						<ellipse transform="matrix(0.7071 -0.7071 0.7071 0.7071 -267.6473 227.4114)" class="st14" cx="140.7" cy="436.8" rx="2.3" ry="2.3"/>
				</g>
				<g>
					
						<ellipse transform="matrix(0.7071 -0.7071 0.7071 0.7071 -252.2008 167.1345)" class="st14" cx="75.7" cy="388" rx="2.3" ry="2.3"/>
					
						<ellipse transform="matrix(0.7071 -0.7071 0.7071 0.7071 -255.5712 175.268)" class="st14" cx="83.8" cy="396.1" rx="2.3" ry="2.3"/>
					
						<ellipse transform="matrix(0.7071 -0.7071 0.7071 0.7071 -258.938 183.3963)" class="st14" cx="91.9" cy="404.3" rx="2.3" ry="2.3"/>
					
						<ellipse transform="matrix(0.7071 -0.7071 0.7071 0.7071 -262.3049 191.5247)" class="st14" cx="100" cy="412.4" rx="2.3" ry="2.3"/>
					
						<ellipse transform="matrix(0.7071 -0.7071 0.7071 0.7071 -265.6718 199.653)" class="st14" cx="108.2" cy="420.5" rx="2.3" ry="2.3"/>
					
						<ellipse transform="matrix(0.7071 -0.7071 0.7071 0.7071 -269.0387 207.7814)" class="st14" cx="116.3" cy="428.6" rx="2.3" ry="2.3"/>
					
						<ellipse transform="matrix(0.7071 -0.7071 0.7071 0.7071 -272.4073 215.9129)" class="st14" cx="124.4" cy="436.8" rx="2.3" ry="2.3"/>
					
						<ellipse transform="matrix(0.7071 -0.7071 0.7071 0.7071 -275.7742 224.0413)" class="st14" cx="132.6" cy="444.9" rx="2.3" ry="2.3"/>
				</g>
				<g>
					
						<ellipse transform="matrix(0.7071 -0.7071 0.7071 0.7071 -260.329 163.7676)" class="st14" cx="67.5" cy="396.1" rx="2.3" ry="2.3"/>
					
						<ellipse transform="matrix(0.7071 -0.7071 0.7071 0.7071 -263.6995 171.9011)" class="st14" cx="75.7" cy="404.3" rx="2.3" ry="2.3"/>
					
						<ellipse transform="matrix(0.7071 -0.7071 0.7071 0.7071 -267.0664 180.0295)" class="st14" cx="83.8" cy="412.4" rx="2.3" ry="2.3"/>
					
						<ellipse transform="matrix(0.7071 -0.7071 0.7071 0.7071 -270.4333 188.1578)" class="st14" cx="91.9" cy="420.5" rx="2.3" ry="2.3"/>
					
						<ellipse transform="matrix(0.7071 -0.7071 0.7071 0.7071 -273.8001 196.2862)" class="st14" cx="100" cy="428.6" rx="2.3" ry="2.3"/>
					
						<ellipse transform="matrix(0.7071 -0.7071 0.7071 0.7071 -277.167 204.4145)" class="st14" cx="108.2" cy="436.8" rx="2.3" ry="2.3"/>
					
						<ellipse transform="matrix(0.7071 -0.7071 0.7071 0.7071 -280.5375 212.5491)" class="st14" cx="116.3" cy="444.9" rx="2.3" ry="2.3"/>
					
						<ellipse transform="matrix(0.7071 -0.7071 0.7071 0.7071 -283.899 220.6681)" class="st14" cx="124.4" cy="453" rx="2.3" ry="2.3"/>
				</g>
				<g>
					
						<ellipse transform="matrix(0.7071 -0.7071 0.7071 0.7071 -268.4648 160.411)" class="st14" cx="59.4" cy="404.3" rx="2.3" ry="2.3"/>
					
						<ellipse transform="matrix(0.7071 -0.7071 0.7071 0.7071 -271.8241 168.5289)" class="st14" cx="67.5" cy="412.4" rx="2.3" ry="2.3"/>
					
						<ellipse transform="matrix(0.7071 -0.7071 0.7071 0.7071 -275.1948 176.6626)" class="st14" cx="75.7" cy="420.5" rx="2.3" ry="2.3"/>
					
						<ellipse transform="matrix(0.7071 -0.7071 0.7071 0.7071 -278.5616 184.791)" class="st14" cx="83.8" cy="428.6" rx="2.3" ry="2.3"/>
					
						<ellipse transform="matrix(0.7071 -0.7071 0.7071 0.7071 -281.9285 192.9193)" class="st14" cx="91.9" cy="436.8" rx="2.3" ry="2.3"/>
					
						<ellipse transform="matrix(0.7071 -0.7071 0.7071 0.7071 -285.2992 201.0537)" class="st14" cx="100" cy="444.9" rx="2.3" ry="2.3"/>
					
						<ellipse transform="matrix(0.7071 -0.7071 0.7071 0.7071 -288.6585 209.1698)" class="st14" cx="108.2" cy="453" rx="2.3" ry="2.3"/>
					
						<ellipse transform="matrix(0.7071 -0.7071 0.7071 0.7071 -292.033 217.3107)" class="st14" cx="116.3" cy="461.2" rx="2.3" ry="2.3"/>
				</g>
				<g>
					
						<ellipse transform="matrix(0.7071 -0.7071 0.7071 0.7071 -276.5854 157.0339)" class="st14" cx="51.3" cy="412.4" rx="2.3" ry="2.3"/>
					
						<ellipse transform="matrix(0.7071 -0.7071 0.7071 0.7071 -279.9602 165.1726)" class="st14" cx="59.4" cy="420.5" rx="2.3" ry="2.3"/>
					
						<ellipse transform="matrix(0.7071 -0.7071 0.7071 0.7071 -283.3191 173.2902)" class="st14" cx="67.5" cy="428.6" rx="2.3" ry="2.3"/>
					
						<ellipse transform="matrix(0.7071 -0.7071 0.7071 0.7071 -286.69 181.4241)" class="st14" cx="75.7" cy="436.8" rx="2.3" ry="2.3"/>
					
						<ellipse transform="matrix(0.7071 -0.7071 0.7071 0.7071 -290.0609 189.5583)" class="st14" cx="83.8" cy="444.9" rx="2.3" ry="2.3"/>
					
						<ellipse transform="matrix(0.7071 -0.7071 0.7071 0.7071 -293.4198 197.6748)" class="st14" cx="91.9" cy="453" rx="2.3" ry="2.3"/>
					
						<ellipse transform="matrix(0.7071 -0.7071 0.7071 0.7071 -296.7946 205.8153)" class="st14" cx="100" cy="461.2" rx="2.3" ry="2.3"/>
					
						<ellipse transform="matrix(0.7071 -0.7071 0.7071 0.7071 -300.1535 213.9311)" class="st14" cx="108.2" cy="469.3" rx="2.3" ry="2.3"/>
				</g>
			</g>
			<path class="st15" d="M323.2,125.1L323.2,125.1c-6.3,6.3-16.5,6.3-22.8,0l-161-161c-6.3-6.3-6.3-16.5,0-22.8h0
				c6.3-6.3,16.5-6.3,22.8,0l161,161C329.5,108.6,329.5,118.8,323.2,125.1z"/>
			<path class="st16" d="M557.1,601.5L557.1,601.5c-6.3,6.3-16.5,6.3-22.8,0l-161-161c-6.3-6.3-6.3-16.5,0-22.8l0,0
				c6.3-6.3,16.5-6.3,22.8,0l161,161C563.4,585,563.4,595.2,557.1,601.5z"/>
			<path class="st17" d="M381.5,161.1L381.5,161.1c-6.3,6.3-16.5,6.3-22.8,0L244.4,46.8c-6.3-6.3-6.3-16.5,0-22.8h0
				c6.3-6.3,16.5-6.3,22.8,0l114.4,114.4C387.8,144.6,387.8,154.8,381.5,161.1z"/>
			<path class="st17" d="M820.4,221.7L820.4,221.7c-6.3,6.3-16.5,6.3-22.8,0l-161-161c-6.3-6.3-6.3-16.5,0-22.8h0
				c6.3-6.3,16.5-6.3,22.8,0l161,161C826.7,205.2,826.7,215.4,820.4,221.7z"/>
			<path class="st16" d="M708,131.9L708,131.9c-6.3,6.3-16.5,6.3-22.8,0l-161-161c-6.3-6.3-6.3-16.5,0-22.8l0,0
				c6.3-6.3,16.5-6.3,22.8,0l161,161C714.3,115.4,714.3,125.6,708,131.9z"/>
			<path class="st13" d="M91.9,335.9L91.9,335.9c-6.3,6.3-16.5,6.3-22.8,0l-161-161c-6.3-6.3-6.3-16.5,0-22.8l0,0
				c6.3-6.3,16.5-6.3,22.8,0l161,161C98.2,319.4,98.2,329.6,91.9,335.9z"/>
			<path class="st17" d="M853.4,490.6L853.4,490.6c-6.3,6.3-16.5,6.3-22.8,0l-161-161c-6.3-6.3-6.3-16.5,0-22.8l0,0
				c6.3-6.3,16.5-6.3,22.8,0l161,161C859.7,474.1,859.7,484.3,853.4,490.6z"/>
			<path class="st15" d="M437.3,456.8L437.3,456.8c-6.3,6.3-16.5,6.3-22.8,0l-62.4-62.4c-6.3-6.3-6.3-16.5,0-22.8h0
				c6.3-6.3,16.5-6.3,22.8,0l62.4,62.4C443.6,440.4,443.6,450.6,437.3,456.8z"/>
			<line class="st18" x1="-70" y1="-24.6" x2="112.7" y2="158.1"/>
			<line class="st15" x1="462.9" y1="191.4" x2="575.3" y2="303.8"/>
			<g>
				<line class="st19" x1="563" y1="394.7" x2="579.8" y2="411.5"/>
				<line class="st19" x1="540.9" y1="372.5" x2="557.6" y2="389.3"/>
				<line class="st19" x1="518.7" y1="350.3" x2="535.5" y2="367.1"/>
				<line class="st19" x1="496.5" y1="328.2" x2="513.3" y2="344.9"/>
			</g>
			<g>
				<line class="st19" x1="154.1" y1="349.5" x2="170.9" y2="366.3"/>
				<line class="st19" x1="131.9" y1="327.3" x2="148.7" y2="344.1"/>
				<line class="st19" x1="109.8" y1="305.1" x2="126.5" y2="321.9"/>
				<line class="st19" x1="87.6" y1="283" x2="104.4" y2="299.7"/>
			</g>
			<g>
				<line class="st19" x1="424.2" y1="61.6" x2="441" y2="78.4"/>
				<line class="st19" x1="402" y1="39.4" x2="418.8" y2="56.2"/>
				<line class="st19" x1="379.8" y1="17.3" x2="396.6" y2="34"/>
				<line class="st19" x1="357.6" y1="-4.9" x2="374.4" y2="11.9"/>
			</g>
			<g>
				<line class="st15" x1="678.7" y1="36.7" x2="695.5" y2="53.5"/>
				<line class="st15" x1="656.5" y1="14.6" x2="673.3" y2="31.3"/>
				<line class="st15" x1="634.4" y1="-7.6" x2="651.1" y2="9.2"/>
				<line class="st15" x1="612.2" y1="-29.8" x2="629" y2="-13"/>
			</g>
			<line class="st18" x1="646.7" y1="129.4" x2="789.8" y2="272.5"/>
			<line class="st20" x1="171.2" y1="301.5" x2="283.7" y2="414"/>
			<line class="st21" x1="23.5" y1="108.1" x2="135.9" y2="220.5"/>
			<line class="st21" x1="399.3" y1="356.8" x2="511.8" y2="469.3"/>
			<line class="st21" x1="366.8" y1="-23.1" x2="479.3" y2="89.4"/>
			<line class="st22" x1="323.6" y1="158.7" x2="436" y2="271.2"/>
			<line class="st23" x1="590.1" y1="116.9" x2="651" y2="177.8"/>
			<line class="st23" x1="559.7" y1="45.3" x2="620.6" y2="106.2"/>
			<g>
				<circle class="st24" cx="384.6" cy="285.8" r="5.9"/>
				<circle class="st24" cx="400.3" cy="301.4" r="5.9"/>
				<circle class="st24" cx="416" cy="317.1" r="5.9"/>
				<circle class="st24" cx="431.6" cy="332.8" r="5.9"/>
			</g>
			<g>
				<circle class="st17" cx="475.2" cy="119.3" r="5.9"/>
				<circle class="st17" cx="490.9" cy="134.9" r="5.9"/>
				<circle class="st17" cx="506.6" cy="150.6" r="5.9"/>
				<circle class="st17" cx="522.2" cy="166.3" r="5.9"/>
			</g>
			<g>
				<circle class="st24" cx="191" cy="55.7" r="5.9"/>
				<circle class="st24" cx="206.7" cy="71.4" r="5.9"/>
				<circle class="st24" cx="222.3" cy="87.1" r="5.9"/>
				<circle class="st24" cx="238" cy="102.7" r="5.9"/>
			</g>
			<g>
				<circle class="st17" cx="181.8" cy="117.3" r="5.9"/>
				<circle class="st17" cx="197.4" cy="133" r="5.9"/>
				<circle class="st17" cx="213.1" cy="148.6" r="5.9"/>
			</g>
			<g>
				<circle class="st2" cx="413.3" cy="199.3" r="5.9"/>
				<circle class="st2" cx="428.9" cy="214.9" r="5.9"/>
				<circle class="st2" cx="444.6" cy="230.6" r="5.9"/>
			</g>
			<g>
				<circle class="st24" cx="-15.7" cy="173.8" r="5.9"/>
				<circle class="st24" cx="0" cy="189.5" r="5.9"/>
				<circle class="st24" cx="15.6" cy="205.2" r="5.9"/>
				<circle class="st24" cx="31.3" cy="220.8" r="5.9"/>
			</g>
			<g>
				<circle class="st25" cx="315.8" cy="423.5" r="5.9"/>
				<circle class="st25" cx="331.4" cy="439.2" r="5.9"/>
				<circle class="st25" cx="347.1" cy="454.8" r="5.9"/>
				<circle class="st25" cx="362.8" cy="470.5" r="5.9"/>
			</g>
			<line class="st22" x1="194" y1="468.9" x2="306.5" y2="581.4"/>
			<line class="st22" x1="671.5" y1="-41.7" x2="784" y2="70.8"/>
			<line class="st26" x1="81.5" y1="103.5" x2="176.3" y2="198.3"/>
			<line class="st26" x1="308" y1="439" x2="402.8" y2="533.8"/>
			<line class="st26" x1="-22" y1="379.7" x2="72.8" y2="474.5"/>
			<line class="st26" x1="541.6" y1="185.8" x2="636.4" y2="280.6"/>
		</g>
	</g>
</g>
</svg>
