<?xml version="1.0" encoding="utf-8"?>
<!-- Generator: Adobe Illustrator 26.5.0, SVG Export Plug-In . SVG Version: 6.00 Build 0)  -->
<svg version="1.1" id="Layer_1" xmlns="http://www.w3.org/2000/svg" xmlns:xlink="http://www.w3.org/1999/xlink" x="0px" y="0px"
	 viewBox="0 0 512 512" style="enable-background:new 0 0 512 512;" xml:space="preserve">
<style type="text/css">
	.st0{fill:#EA4335;}
	.st1{fill:#4285F4;}
	.st2{fill:#34A853;}
	.st3{fill:#FBBC05;}
	.st4{fill:#5F6368;}
</style>
<g>
	<path class="st0" d="M60.21,237.93h2.94l8.27-8.27l0.42-3.51c-15.29-13.6-38.85-12.06-52.31,3.23c-3.79,4.21-6.45,9.4-7.99,14.86
		c0.98-0.42,1.96-0.42,2.94-0.14l16.55-2.66c0,0,0.84-1.4,1.26-1.26C39.46,232.04,51.8,231.06,60.21,237.93L60.21,237.93z"/>
	<path class="st1" d="M83.21,244.24c-1.96-7.01-5.75-13.32-11.22-18.09l-11.64,11.64c4.91,3.93,7.71,9.96,7.57,16.27v2.1
		c5.75,0,10.24,4.63,10.24,10.24c0,5.75-4.63,10.24-10.24,10.24H47.31l-2.1,2.1v12.34l2.1,2.1h20.61
		c14.86,0.14,26.93-11.78,27.07-26.64C94.99,257.71,90.64,249.29,83.21,244.24z"/>
	<path class="st2" d="M26.7,293.18h20.61v-16.55H26.7c-1.4,0-2.94-0.28-4.21-0.98l-2.94,0.84l-8.27,8.27l-0.7,2.94
		C15.2,291.22,20.81,293.18,26.7,293.18z"/>
	<path class="st3" d="M26.7,239.61c-14.86,0.14-26.78,12.2-26.64,26.93c0,8.27,3.93,15.99,10.52,21.04l11.92-11.92
		c-5.19-2.38-7.43-8.41-5.19-13.6s8.41-7.43,13.6-5.19c2.24,0.98,4.07,2.8,5.19,5.19l11.92-11.92
		C42.96,243.54,35.11,239.61,26.7,239.61z"/>
	<path class="st4" d="M149.82,281.69c-7.15,0.14-14.02-2.8-19.07-7.85c-5.19-4.91-8.13-11.78-7.99-18.93
		c-0.14-7.15,2.8-14.02,7.99-18.93c5.05-5.19,11.92-7.99,19.07-7.99c6.87-0.14,13.46,2.52,18.37,7.43L163,240.6
		c-3.51-3.37-8.27-5.33-13.18-5.19c-5.19,0-10.1,2.1-13.6,5.75c-3.65,3.65-5.61,8.55-5.61,13.74c0,5.05,1.96,9.96,5.61,13.6
		c7.43,7.43,19.49,7.57,27.07,0.28c2.24-2.52,3.65-5.61,3.93-8.98h-17.39v-7.43h24.54c0.28,1.54,0.28,2.94,0.28,4.49
		c0.28,6.31-1.96,12.48-6.31,17.11C163.57,279.16,156.83,281.83,149.82,281.69z M206.9,276.78c-6.87,6.59-17.67,6.59-24.54,0
		c-3.37-3.23-5.19-7.71-5.05-12.34c-0.14-4.63,1.68-9.12,5.05-12.34c6.87-6.59,17.67-6.59,24.54,0c3.37,3.23,5.19,7.71,5.05,12.34
		C212.09,269.06,210.26,273.55,206.9,276.78L206.9,276.78z M187.83,271.87c3.51,3.79,9.54,3.93,13.32,0.42
		c0.14-0.14,0.28-0.28,0.42-0.42c1.96-1.96,2.94-4.63,2.94-7.43c0.14-2.8-0.98-5.47-2.94-7.43c-3.65-3.79-9.68-3.93-13.46-0.28
		c-0.14,0.14-0.14,0.14-0.28,0.28c-1.96,1.96-2.94,4.77-2.94,7.43C184.74,267.24,185.86,269.91,187.83,271.87L187.83,271.87z
		 M244.62,276.78c-6.87,6.59-17.67,6.59-24.54,0c-3.37-3.23-5.19-7.71-5.05-12.34c-0.14-4.63,1.68-9.12,5.05-12.34
		c6.87-6.59,17.67-6.59,24.54,0c3.37,3.23,5.19,7.71,5.05,12.34C249.67,269.06,247.99,273.55,244.62,276.78z M225.55,271.87
		c3.51,3.79,9.54,3.93,13.32,0.42c0.14-0.14,0.28-0.28,0.42-0.42c1.96-1.96,2.94-4.63,2.94-7.43c0.14-2.8-0.98-5.47-2.94-7.43
		c-3.65-3.79-9.68-3.93-13.46-0.28c-0.14,0.14-0.14,0.14-0.28,0.28c-1.96,1.96-2.94,4.77-2.94,7.43
		C222.46,267.24,223.59,269.91,225.55,271.87L225.55,271.87z M269.3,297.11c-3.51,0.14-6.87-0.98-9.68-3.09
		c-2.52-1.82-4.35-4.35-5.61-7.15l6.59-2.8c0.7,1.68,1.82,3.23,3.23,4.35c1.54,1.26,3.51,1.82,5.47,1.82
		c2.52,0.14,5.05-0.84,6.73-2.66c1.68-2.1,2.66-4.77,2.38-7.57v-2.52h-0.28c-2.24,2.66-5.61,4.07-9.12,3.93
		c-4.35,0-8.55-1.82-11.64-5.05c-3.23-3.23-5.05-7.57-4.91-12.06c-0.14-4.63,1.68-8.98,4.91-12.2c2.94-3.23,7.15-5.05,11.64-5.05
		c1.82,0,3.65,0.42,5.33,1.12c1.4,0.56,2.66,1.54,3.79,2.8h0.28v-2.8h7.15v30.85c0.42,4.91-1.26,9.82-4.63,13.46
		C278,295.57,273.79,297.25,269.3,297.11z M269.86,274.81c2.52,0,4.91-0.98,6.59-2.94c1.82-2.1,2.66-4.63,2.66-7.43
		c0.14-2.8-0.84-5.47-2.66-7.57c-1.68-1.82-4.07-2.94-6.59-2.94s-5.05,0.98-6.73,2.94c-1.96,1.96-2.94,4.77-2.94,7.43
		c0,2.8,0.98,5.47,2.94,7.43C264.81,273.83,267.34,274.95,269.86,274.81z M298.47,229.94v50.62h-7.57v-50.62H298.47z M319.23,281.69
		c-4.63,0.14-8.98-1.68-12.2-4.91c-3.23-3.23-5.05-7.71-4.91-12.2c-0.14-4.63,1.54-9.12,4.77-12.34c2.94-3.23,7.15-4.91,11.64-4.77
		c1.96,0,3.93,0.42,5.75,1.12c1.68,0.7,3.09,1.68,4.49,2.94c1.12,1.12,2.1,2.24,2.94,3.51c0.7,1.12,1.26,2.24,1.68,3.37l0.84,1.96
		l-23.14,9.54c1.4,3.23,4.77,5.33,8.27,5.19c3.51,0,6.73-1.82,8.41-4.77l5.75,3.93c-1.54,2.1-3.37,3.93-5.61,5.33
		C325.4,280.84,322.31,281.69,319.23,281.69z M309.55,263.88l15.43-6.45c-0.42-1.12-1.26-2.1-2.38-2.66
		c-1.26-0.7-2.52-0.98-3.93-0.98c-2.38,0-4.63,0.98-6.17,2.8C310.39,258.55,309.41,261.21,309.55,263.88z"/>
	<path class="st4" d="M373.64,281.69c-13.18,0.28-23.98-10.24-24.26-23.42c0-0.28,0-0.7,0-0.98c-0.28-13.18,10.1-24.12,23.28-24.4
		c0.28,0,0.7,0,0.98,0c6.59-0.14,12.9,2.66,17.11,7.57l-4.21,4.07c-3.09-3.93-7.99-6.17-12.9-5.89c-4.77-0.14-9.54,1.68-12.9,5.19
		c-3.51,3.51-5.47,8.41-5.19,13.46c-0.14,5.05,1.68,9.96,5.19,13.46c3.37,3.37,7.99,5.33,12.9,5.19c5.61,0,10.94-2.38,14.44-6.73
		l4.21,4.21c-2.24,2.66-4.91,4.63-7.99,6.17C380.93,280.98,377.28,281.69,373.64,281.69z"/>
	<path class="st4" d="M403.51,280.56h-6.03v-46.7h6.03V280.56z"/>
	<path class="st4" d="M413.32,252.52c6.59-6.45,17.11-6.45,23.56,0c3.09,3.23,4.77,7.71,4.63,12.2c0.14,4.49-1.54,8.83-4.63,12.2
		c-6.59,6.45-17.11,6.45-23.56,0c-3.09-3.23-4.77-7.71-4.63-12.2C408.56,260.09,410.1,255.74,413.32,252.52z M417.67,272.99
		c3.79,4.07,10.24,4.21,14.3,0.42c0.14-0.14,0.28-0.28,0.42-0.42c2.1-2.24,3.23-5.33,3.09-8.41c0.14-3.09-0.98-6.17-3.09-8.41
		c-3.79-4.07-10.24-4.21-14.3-0.42c-0.14,0.14-0.28,0.28-0.42,0.42c-2.1,2.24-3.23,5.33-3.09,8.41
		C414.45,267.66,415.57,270.75,417.67,272.99L417.67,272.99z"/>
	<path class="st4" d="M474.75,280.56h-5.89v-4.49h-0.14c-0.98,1.68-2.52,3.09-4.21,3.93c-1.82,0.98-3.79,1.54-5.89,1.54
		c-3.37,0.28-6.73-1.12-9.12-3.65c-2.24-2.8-3.23-6.31-3.09-9.82v-19.63h6.03v18.51c0,6.03,2.66,8.98,7.85,8.98
		c2.38,0.14,4.63-0.98,6.03-2.94c1.54-1.96,2.38-4.35,2.38-6.87v-17.53h6.03V280.56z"/>
	<path class="st4" d="M495.08,281.69c-4.07,0-7.99-1.82-10.66-4.91c-2.94-3.37-4.63-7.71-4.49-12.06
		c-0.14-4.49,1.54-8.83,4.49-12.06c2.66-3.09,6.59-4.91,10.66-4.91c2.24,0,4.49,0.56,6.59,1.54c1.82,0.84,3.23,2.24,4.35,3.93h0.28
		l-0.28-4.49v-14.72h6.03v46.7h-5.75v-4.49h-0.28c-1.12,1.68-2.52,3.09-4.35,3.93C499.57,281.12,497.32,281.69,495.08,281.69z
		 M496.06,276.22c2.8,0,5.33-1.12,7.15-3.09c2.1-2.38,3.09-5.33,2.94-8.41c0.14-3.09-0.84-6.17-2.94-8.41
		c-3.65-3.93-9.82-4.35-13.88-0.7c-0.28,0.14-0.42,0.42-0.7,0.7c-2.1,2.24-3.09,5.33-2.94,8.41c-0.14,3.09,0.84,6.03,2.94,8.41
		C490.59,275.09,493.26,276.22,496.06,276.22z"/>
</g>
</svg>
