<?xml version="1.0" encoding="utf-8"?>
<!-- Generator: Adobe Illustrator 20.1.0, SVG Export Plug-In . SVG Version: 6.00 Build 0)  -->
<svg version="1.1" id="Слой_1" xmlns="http://www.w3.org/2000/svg" xmlns:xlink="http://www.w3.org/1999/xlink" x="0px" y="0px"
	 width="404" height="321.3" viewBox="0 0 404 321.3" style="enable-background:new 0 0 404 321.3;" xml:space="preserve">
<style type="text/css">
	.st0{fill:#FFFFFF;}
	.st1{opacity:0.2;fill:#FFFFFF;enable-background:new    ;}
	.st2{opacity:0.5;fill:#FFFFFF;enable-background:new    ;}
	.st3{fill:#7DC3EA;}
	.st4{fill:url(#SVGID_1_);}
	.st5{fill:url(#SVGID_2_);}
	.st6{fill:url(#SVGID_3_);}
	.st7{fill:url(#SVGID_4_);}
	.st8{fill:url(#SVGID_5_);}
	.st9{fill:url(#SVGID_6_);}
	.st10{fill:url(#SVGID_7_);}
	.st11{fill:url(#SVGID_8_);}
	.st12{fill:url(#SVGID_9_);}
	.st13{fill:url(#SVGID_10_);}
	.st14{fill:url(#SVGID_11_);}
	.st15{fill:url(#SVGID_12_);}
	.st16{fill:url(#SVGID_13_);}
	.st17{fill:url(#SVGID_14_);}
	.st18{fill:#5793CE;}
	.st19{fill:url(#SVGID_15_);}
	.st20{fill:url(#SVGID_16_);}
	.st21{fill:#173D7A;}
	.st22{fill:#396CAA;}
	.st23{opacity:0.3;fill:#06033E;enable-background:new    ;}
	.st24{fill:#D4ECFF;}
	.st25{fill:#FF7102;}
	.st26{opacity:0.5;fill:#173D7A;enable-background:new    ;}
	.st27{fill:url(#SVGID_17_);}
	.st28{fill:url(#SVGID_18_);}
	.st29{fill:url(#SVGID_19_);}
	.st30{fill:url(#SVGID_20_);}
	.st31{fill:url(#SVGID_21_);}
	.st32{fill:url(#SVGID_22_);}
</style>
<path class="st0" d="M39.9,204.5c-0.6,0.3-1.2,0.8-1.7,1.2c-0.2-7.7-5.8-10.7-12.6-6.8c-5.6,3.2-10.3,10.1-11.9,16.8
	c-1.4-0.2-3,0.2-4.7,1.2c-5,2.9-9,9.9-9,15.6s4,8.1,9,5.2l31-17.9c3.7-2.1,6.6-7.3,6.6-11.5C46.6,204,43.6,202.3,39.9,204.5z"/>
<g>
	<path class="st0" d="M280.1,251.5c0,1.9-1.3,4.1-2.9,5.1c-1.6,0.9-2.9,0.2-2.9-1.7c0-1.9,1.3-4.1,2.9-5.1
		C278.8,248.8,280.1,249.6,280.1,251.5z"/>
	<path class="st0" d="M289.6,246c0,1.9-1.3,4.1-2.9,5.1c-1.6,0.9-2.9,0.2-2.9-1.7s1.3-4.1,2.9-5.1
		C288.2,243.4,289.6,244.1,289.6,246z"/>
	<path class="st0" d="M299,240.5c0,1.9-1.3,4.1-2.9,5.1c-1.6,0.9-2.9,0.2-2.9-1.7s1.3-4.1,2.9-5.1C297.7,237.9,299,238.7,299,240.5z
		"/>
	<path class="st0" d="M308.5,235.1c0,1.9-1.3,4.1-2.9,5.1c-1.6,0.9-2.9,0.2-2.9-1.7s1.3-4.1,2.9-5.1
		C307.2,232.5,308.5,233.2,308.5,235.1z"/>
</g>
<g>
	<path class="st0" d="M143.8,303.6c0,1.9-1.3,4.1-2.9,5.1c-1.6,0.9-2.9,0.2-2.9-1.7c0-1.9,1.3-4.1,2.9-5.1
		C142.5,301,143.8,301.8,143.8,303.6z"/>
	<path class="st0" d="M151.9,299c0,1.9-1.3,4.1-2.9,5.1c-1.6,0.9-2.9,0.2-2.9-1.7c0-1.9,1.3-4.1,2.9-5.1
		C150.6,296.4,151.9,297.1,151.9,299z"/>
	<path class="st0" d="M143.8,294.3c0,1.9-1.3,4.1-2.9,5.1c-1.6,0.9-2.9,0.2-2.9-1.7c0-1.9,1.3-4.1,2.9-5.1
		C142.5,291.7,143.8,292.5,143.8,294.3z"/>
	<path class="st0" d="M151.9,289.7c0,1.9-1.3,4.1-2.9,5.1c-1.6,0.9-2.9,0.2-2.9-1.7c0-1.9,1.3-4.1,2.9-5.1
		C150.6,287.1,151.9,287.8,151.9,289.7z"/>
</g>
<g>
	<polygon class="st0" points="116.8,70.6 110.9,74 110.9,67.3 116.8,63.9 	"/>
	<polygon class="st0" points="124.9,65.9 119,69.3 119,62.5 124.9,59.2 	"/>
	<polygon class="st0" points="116.8,79.4 111,82.7 111,76 116.8,72.6 	"/>
	<polygon class="st0" points="124.9,74.7 119,78.1 119,71.4 124.9,68 	"/>
</g>
<path class="st1" d="M354.9,3.8c-1,0.6-2,1.4-2.9,2.5c-0.1-5.6-4.2-7.9-9.1-5c-1.6,0.9-3.1,2.3-4.4,3.8c-2.2-3.9-6.8-4.8-12.1-1.7
	c-7.5,4.3-13.5,14.8-13.5,23.4c0,0.7,0.1,1.4,0.1,2c-1.1-0.3-2.4-0.1-3.8,0.8c-3.6,2.1-6.5,7.1-6.5,11.2s2.9,5.8,6.5,3.7l45.7-26.4
	c3.4-2,6.2-6.8,6.2-10.8C361.2,3.4,358.4,1.8,354.9,3.8z"/>
<path class="st2" d="M363.1,10.9c-1,0.6-2,1.4-2.9,2.5c-0.1-5.6-4.2-7.9-9.1-5c-1.6,0.9-3.1,2.3-4.4,3.8c-2.2-3.9-6.8-4.8-12.1-1.7
	c-7.5,4.3-13.5,14.8-13.5,23.4c0,0.7,0.1,1.4,0.1,2c-1.1-0.3-2.4-0.1-3.8,0.8c-3.6,2.1-6.5,7.1-6.5,11.2s2.9,5.8,6.5,3.7l45.7-26.4
	c3.4-2,6.2-6.8,6.2-10.8S366.5,9,363.1,10.9z"/>
<path class="st0" d="M371.2,18.1c-1,0.6-2,1.4-2.9,2.5c-0.1-5.6-4.2-7.9-9.1-5c-1.6,0.9-3.1,2.3-4.4,3.8c-2.2-3.9-6.8-4.8-12.1-1.7
	c-7.5,4.3-13.5,14.8-13.5,23.4c0,0.7,0.1,1.4,0.1,2c-1.1-0.3-2.4-0.1-3.8,0.8C321.9,46,319,51,319,55.1s2.9,5.8,6.5,3.7l45.7-26.4
	c3.4-2,6.2-6.8,6.2-10.8C377.4,17.7,374.6,16.1,371.2,18.1z"/>
<path class="st0" d="M106.1,219.5c-0.2,0-0.5-0.1-0.7-0.2c-0.4-0.3-0.7-0.7-0.7-1.2V200c0-0.5,0.3-1,0.7-1.2l15.7-9
	c0.4-0.3,1-0.3,1.4,0s0.7,0.7,0.7,1.2v18.1c0,0.5-0.3,1-0.7,1.2l-15.7,9C106.6,219.4,106.3,219.5,106.1,219.5z M107.5,200.8v14.8
	l12.8-7.4v-14.8L107.5,200.8z M121.7,209L121.7,209L121.7,209z"/>
<g>
	<g>
		<polygon class="st3" points="95.3,307.7 72.7,294.7 95.3,281.7 117.9,294.7 		"/>
		<path class="st0" d="M95.3,299.7c-0.3,0-0.6-0.1-0.9-0.2l-22.6-13c-0.5-0.3-0.9-0.9-0.9-1.5s0.3-1.2,0.9-1.5l22.6-13
			c0.5-0.3,1.2-0.3,1.7,0l22.6,13c0.5,0.3,0.9,0.9,0.9,1.5s-0.3,1.2-0.9,1.5l-22.6,13C95.9,299.6,95.6,299.7,95.3,299.7z
			 M76.2,284.9L95.4,296l19.2-11.1l-19.3-11L76.2,284.9z"/>
		
			<radialGradient id="SVGID_1_" cx="93.1752" cy="783.0961" r="33.6687" gradientTransform="matrix(1 0 0 1 0 -522.2846)" gradientUnits="userSpaceOnUse">
			<stop  offset="0" style="stop-color:#274F89"/>
			<stop  offset="1" style="stop-color:#173D7A"/>
		</radialGradient>
		<polygon class="st4" points="117.9,274.7 95.3,287.8 95.3,261.7 117.9,248.6 		"/>
		
			<linearGradient id="SVGID_2_" gradientUnits="userSpaceOnUse" x1="72.7" y1="770.9346" x2="132.2775" y2="770.9346" gradientTransform="matrix(1 0 0 1 0 -522.2846)">
			<stop  offset="0" style="stop-color:#D4ECFF"/>
			<stop  offset="0.2385" style="stop-color:#D0EAFE"/>
			<stop  offset="0.4599" style="stop-color:#C5E2F9"/>
			<stop  offset="0.6745" style="stop-color:#B2D6F2"/>
			<stop  offset="0.8837" style="stop-color:#98C4E7"/>
			<stop  offset="1" style="stop-color:#86B8E0"/>
		</linearGradient>
		<polygon class="st5" points="95.3,261.7 72.7,248.6 95.3,235.6 117.9,248.6 		"/>
		
			<radialGradient id="SVGID_3_" cx="44.7695" cy="748.2553" r="60.8594" gradientTransform="matrix(1 0 0 1 0 -522.2846)" gradientUnits="userSpaceOnUse">
			<stop  offset="0" style="stop-color:#699DD1"/>
			<stop  offset="0.2662" style="stop-color:#6396CC"/>
			<stop  offset="0.6412" style="stop-color:#5184BD"/>
			<stop  offset="1" style="stop-color:#396CAA"/>
		</radialGradient>
		<polygon class="st6" points="95.3,287.8 72.7,274.7 72.7,248.6 95.3,261.7 		"/>
	</g>
	<polygon class="st0" points="87.2,273.7 80.9,270 80.9,262.7 87.2,266.4 	"/>
</g>
<g>
	<g>
		<polygon class="st3" points="348.3,167.3 325.7,154.2 348.3,141.2 370.8,154.2 		"/>
		<path class="st0" d="M348.3,159.2c-0.3,0-0.6-0.1-0.9-0.2l-22.6-13c-0.5-0.3-0.9-0.9-0.9-1.5s0.3-1.2,0.9-1.5l22.6-13
			c0.5-0.3,1.2-0.3,1.7,0l22.6,13c0.5,0.3,0.9,0.9,0.9,1.5s-0.3,1.2-0.9,1.5l-22.6,13C348.8,159.1,348.6,159.2,348.3,159.2z
			 M329.1,144.4l19.2,11.1l19.2-11.1l-19.2-11.1L329.1,144.4z"/>
		
			<radialGradient id="SVGID_4_" cx="346.117" cy="642.5998" r="33.6687" gradientTransform="matrix(1 0 0 1 0 -522.2846)" gradientUnits="userSpaceOnUse">
			<stop  offset="0" style="stop-color:#274F89"/>
			<stop  offset="1" style="stop-color:#173D7A"/>
		</radialGradient>
		<polygon class="st7" points="370.8,134.2 348.3,147.3 348.3,121.2 370.8,108.1 		"/>
		
			<linearGradient id="SVGID_5_" gradientUnits="userSpaceOnUse" x1="325.7" y1="630.4346" x2="385.2775" y2="630.4346" gradientTransform="matrix(1 0 0 1 0 -522.2846)">
			<stop  offset="0" style="stop-color:#D4ECFF"/>
			<stop  offset="0.2385" style="stop-color:#D0EAFE"/>
			<stop  offset="0.4599" style="stop-color:#C5E2F9"/>
			<stop  offset="0.6745" style="stop-color:#B2D6F2"/>
			<stop  offset="0.8837" style="stop-color:#98C4E7"/>
			<stop  offset="1" style="stop-color:#86B8E0"/>
		</linearGradient>
		<polygon class="st8" points="348.3,121.2 325.7,108.1 348.3,95.1 370.8,108.1 		"/>
		
			<radialGradient id="SVGID_6_" cx="297.7113" cy="607.759" r="60.8594" gradientTransform="matrix(1 0 0 1 0 -522.2846)" gradientUnits="userSpaceOnUse">
			<stop  offset="0" style="stop-color:#699DD1"/>
			<stop  offset="0.2662" style="stop-color:#6396CC"/>
			<stop  offset="0.6412" style="stop-color:#5184BD"/>
			<stop  offset="1" style="stop-color:#396CAA"/>
		</radialGradient>
		<polygon class="st9" points="348.3,147.3 325.7,134.2 325.7,108.1 348.3,121.2 		"/>
	</g>
	<polygon class="st0" points="340.1,133.2 333.8,129.5 333.8,122.2 340.1,125.9 	"/>
	<polygon class="st0" points="341.9,108.2 348.2,104.5 354.6,108.1 348.3,111.8 	"/>
</g>
<g>
	<g>
		<polygon class="st3" points="348.3,307.7 325.7,294.7 348.3,281.7 370.8,294.7 		"/>
		<path class="st0" d="M348.3,299.7c-0.3,0-0.6-0.1-0.9-0.2l-22.6-13c-0.5-0.3-0.9-0.9-0.9-1.5s0.3-1.2,0.9-1.5l22.6-13
			c0.5-0.3,1.2-0.3,1.7,0l22.6,13c0.5,0.3,0.9,0.9,0.9,1.5s-0.3,1.2-0.9,1.5l-22.6,13C348.8,299.6,348.6,299.7,348.3,299.7z
			 M329.1,284.9l19.2,11.1l19.2-11.1l-19.2-11L329.1,284.9z"/>
		
			<radialGradient id="SVGID_7_" cx="346.1167" cy="783.0961" r="33.6687" gradientTransform="matrix(1 0 0 1 0 -522.2846)" gradientUnits="userSpaceOnUse">
			<stop  offset="0" style="stop-color:#274F89"/>
			<stop  offset="1" style="stop-color:#173D7A"/>
		</radialGradient>
		<polygon class="st10" points="370.8,274.7 348.3,287.8 348.3,261.7 370.8,248.6 		"/>
		
			<linearGradient id="SVGID_8_" gradientUnits="userSpaceOnUse" x1="325.7" y1="770.9346" x2="385.2775" y2="770.9346" gradientTransform="matrix(1 0 0 1 0 -522.2846)">
			<stop  offset="0" style="stop-color:#D4ECFF"/>
			<stop  offset="0.2385" style="stop-color:#D0EAFE"/>
			<stop  offset="0.4599" style="stop-color:#C5E2F9"/>
			<stop  offset="0.6745" style="stop-color:#B2D6F2"/>
			<stop  offset="0.8837" style="stop-color:#98C4E7"/>
			<stop  offset="1" style="stop-color:#86B8E0"/>
		</linearGradient>
		<polygon class="st11" points="348.3,261.7 325.7,248.6 348.3,235.6 370.8,248.6 		"/>
		
			<radialGradient id="SVGID_9_" cx="297.711" cy="748.2553" r="60.8594" gradientTransform="matrix(1 0 0 1 0 -522.2846)" gradientUnits="userSpaceOnUse">
			<stop  offset="0" style="stop-color:#699DD1"/>
			<stop  offset="0.2662" style="stop-color:#6396CC"/>
			<stop  offset="0.6412" style="stop-color:#5184BD"/>
			<stop  offset="1" style="stop-color:#396CAA"/>
		</radialGradient>
		<polygon class="st12" points="348.3,287.8 325.7,274.7 325.7,248.6 348.3,261.7 		"/>
	</g>
	<polygon class="st0" points="340.1,273.7 333.8,270 333.8,262.7 340.1,266.4 	"/>
</g>
<g>
	<g>
		<polygon class="st3" points="95.3,167.3 72.7,154.2 95.3,141.2 117.9,154.2 		"/>
		<path class="st0" d="M95.3,159.2c-0.3,0-0.6-0.1-0.9-0.2l-22.6-13c-0.5-0.3-0.9-0.9-0.9-1.5s0.3-1.2,0.9-1.5l22.6-13
			c0.5-0.3,1.2-0.3,1.7,0l22.6,13c0.5,0.3,0.9,0.9,0.9,1.5s-0.3,1.2-0.9,1.5l-22.6,13C95.9,159.1,95.6,159.2,95.3,159.2z
			 M76.2,144.4l19.2,11.1l19.2-11.1l-19.2-11.1L76.2,144.4z"/>
		
			<radialGradient id="SVGID_10_" cx="93.1752" cy="642.5998" r="33.6687" gradientTransform="matrix(1 0 0 1 0 -522.2846)" gradientUnits="userSpaceOnUse">
			<stop  offset="0" style="stop-color:#274F89"/>
			<stop  offset="1" style="stop-color:#173D7A"/>
		</radialGradient>
		<polygon class="st13" points="117.9,134.2 95.3,147.3 95.3,121.2 117.9,108.1 		"/>
		
			<linearGradient id="SVGID_11_" gradientUnits="userSpaceOnUse" x1="72.7" y1="630.4346" x2="132.2775" y2="630.4346" gradientTransform="matrix(1 0 0 1 0 -522.2846)">
			<stop  offset="0" style="stop-color:#D4ECFF"/>
			<stop  offset="0.2385" style="stop-color:#D0EAFE"/>
			<stop  offset="0.4599" style="stop-color:#C5E2F9"/>
			<stop  offset="0.6745" style="stop-color:#B2D6F2"/>
			<stop  offset="0.8837" style="stop-color:#98C4E7"/>
			<stop  offset="1" style="stop-color:#86B8E0"/>
		</linearGradient>
		<polygon class="st14" points="95.3,121.2 72.7,108.1 95.3,95.1 117.9,108.1 		"/>
		
			<radialGradient id="SVGID_12_" cx="44.7695" cy="607.759" r="60.8594" gradientTransform="matrix(1 0 0 1 0 -522.2846)" gradientUnits="userSpaceOnUse">
			<stop  offset="0" style="stop-color:#699DD1"/>
			<stop  offset="0.2662" style="stop-color:#6396CC"/>
			<stop  offset="0.6412" style="stop-color:#5184BD"/>
			<stop  offset="1" style="stop-color:#396CAA"/>
		</radialGradient>
		<polygon class="st15" points="95.3,147.3 72.7,134.2 72.7,108.1 95.3,121.2 		"/>
	</g>
	<polygon class="st0" points="87.2,133.2 80.9,129.5 80.9,122.2 87.2,125.9 	"/>
</g>
<rect x="265.9" y="145.2" transform="matrix(0.8661 -0.4999 0.4999 0.8661 -32.7427 171.5605)" class="st0" width="75.9" height="3.4"/>
<g>
	<path class="st3" d="M216.5,259.4l-58-33.5c-2.1-1.2-1.9-3.4,0.6-4.8l61.4-35.5c2.5-1.4,6.2-1.6,8.3-0.3l57.9,33.4
		c2.1,1.2,1.9,3.4-0.6,4.8L224.7,259C222.3,260.4,218.6,260.6,216.5,259.4z"/>
	<path class="st0" d="M220.1,248.4c-1.7,0-3.2-0.3-4.5-1l-57.9-33.5c-1.5-0.8-2.3-2.1-2.3-3.6c0-1.6,1.1-3.1,2.9-4.2l61.4-35.5
		c3-1.7,7.4-1.9,10-0.3l57.9,33.4c1.5,0.8,2.3,2.1,2.3,3.6c0,1.6-1.1,3.1-2.9,4.2L225.6,247C224,247.9,222,248.4,220.1,248.4z
		 M217.3,244.4c1.6,0.9,4.7,0.8,6.6-0.3l61.4-35.5c0.9-0.5,1.2-1,1.2-1.2c0-0.1-0.2-0.4-0.6-0.6L228,173.4c-1.6-0.9-4.7-0.8-6.6,0.3
		L160,209.2c-0.9,0.5-1.2,1-1.2,1.2c0,0.1,0.2,0.4,0.6,0.6L217.3,244.4z"/>
	<g>
		<g>
			<g>
				<g>
					<g>
						<g>
							
								<radialGradient id="SVGID_13_" cx="197.6936" cy="638.2137" r="121.1459" gradientTransform="matrix(1 0 0 1 0 -522.2846)" gradientUnits="userSpaceOnUse">
								<stop  offset="0" style="stop-color:#396CAA"/>
								<stop  offset="1" style="stop-color:#274F89"/>
							</radialGradient>
							<path class="st16" d="M220.6,83.3c0,0-31.8,3-51,4.5l50.8,144.7l67.2-38.8l0,0l0.1-0.1l0,0c0.8-0.5,1.4-1.7,1.4-3.3V48.9
								c0-1.5-0.4-3.1-1.2-4.5L220.6,83.3z"/>
							
								<linearGradient id="SVGID_14_" gradientUnits="userSpaceOnUse" x1="159.5837" y1="552.2766" x2="272.5466" y2="621.1028" gradientTransform="matrix(1 0 0 1 0 -522.2846)">
								<stop  offset="0" style="stop-color:#D4ECFF"/>
								<stop  offset="0.2385" style="stop-color:#D0EAFE"/>
								<stop  offset="0.4599" style="stop-color:#C5E2F9"/>
								<stop  offset="0.6745" style="stop-color:#B2D6F2"/>
								<stop  offset="0.8837" style="stop-color:#98C4E7"/>
								<stop  offset="1" style="stop-color:#86B8E0"/>
							</linearGradient>
							<path class="st17" d="M285.1,40.9L226,6.8c-1-0.6-2-0.6-2.7-0.2l0,0l-67.5,38.9l3.2,11.8l16.9,48.2l3.2,1.8l109-62.9
								C287.3,42.9,286.2,41.6,285.1,40.9z"/>
							<path class="st18" d="M217.6,232.4l-59.1-34.1c-2.3-1.3-4.2-4.9-4.2-8V48.9c0-3.1,1.9-4.5,4.2-3.1l59.1,34.1
								c2.3,1.3,4.2,4.9,4.2,8v141.4C221.8,232.3,219.9,233.7,217.6,232.4z"/>
							<path class="st0" d="M218.9,79.1L159.8,45c-1.3-0.8-2.5-0.6-3.3,0.2c0.6-0.1,1.3,0,2,0.5l59.1,34.1c2.3,1.3,4.2,4.9,4.2,8
								v141.4c0,1.3-0.3,2.3-0.9,2.9c1.3-0.2,2.2-1.5,2.2-3.6V87.1C223.1,84,221.2,80.5,218.9,79.1z"/>
							
								<linearGradient id="SVGID_15_" gradientUnits="userSpaceOnUse" x1="-128.7212" y1="1691.2654" x2="-62.3357" y2="1676.2223" gradientTransform="matrix(0.866 0.5 0 1.1547 267.7912 -1758.8767)">
								<stop  offset="0" style="stop-color:#3919BB"/>
								<stop  offset="1" style="stop-color:#6507FA"/>
							</linearGradient>
							<path class="st19" d="M213.9,223.9l-51.7-29.8c-2-1.2-3.6-4.3-3.6-7V55.7c0-2.7,1.6-3.9,3.6-2.8l51.7,29.8
								c2,1.2,3.6,4.3,3.6,7v131.4C217.5,223.8,215.9,225,213.9,223.9z"/>
							
								<linearGradient id="SVGID_16_" gradientUnits="userSpaceOnUse" x1="-128.7212" y1="1691.2654" x2="-62.3357" y2="1676.2223" gradientTransform="matrix(0.866 0.5 0 1.1547 267.7912 -1758.8767)">
								<stop  offset="0" style="stop-color:#3919BB"/>
								<stop  offset="1" style="stop-color:#6507FA"/>
							</linearGradient>
							<path class="st20" d="M213.9,223.9l-51.7-29.8c-2-1.2-3.6-4.3-3.6-7V55.7c0-2.7,1.6-3.9,3.6-2.8l51.7,29.8
								c2,1.2,3.6,4.3,3.6,7v131.4C217.5,223.8,215.9,225,213.9,223.9z"/>
							<path class="st21" d="M213.9,223.9l-51.7-29.8c-2-1.2-3.6-4.3-3.6-7V55.7c0-2.7,1.6-3.9,3.6-2.8l51.7,29.8
								c2,1.2,3.6,4.3,3.6,7v131.4C217.5,223.8,215.9,225,213.9,223.9z"/>
							<path class="st22" d="M215.6,222.9l-51.7-29.8c-2-1.2-3.6-4.3-3.6-7V54.7c0-0.9,0.2-1.7,0.5-2.2c-1.3,0-2.2,1.2-2.2,3.2
								v131.4c0,2.7,1.6,5.8,3.6,7l51.7,29.8c1.3,0.8,2.5,0.5,3.1-0.6C216.6,223.3,216.1,223.2,215.6,222.9z"/>
						</g>
					</g>
				</g>
				<g>
					<g>
						<path class="st21" d="M213.9,163.6l-19.2-11.1l-30.6,17.7l53.5,30.9v-30.5C217.5,167.8,215.9,164.7,213.9,163.6z"/>
						<path class="st21" d="M213.9,136.6l-19.2-11l-30.6,17.7l53.5,30.9v-30.5C217.5,140.9,215.9,137.8,213.9,136.6z"/>
						<path class="st21" d="M213.9,109.7l-19.2-11.1l-30.6,17.7l53.5,30.9v-30.5C217.5,114,215.9,110.9,213.9,109.7z"/>
						<path class="st21" d="M213.9,82.8l-19.2-11.1l-30.6,17.7l53.5,30.9V89.8C217.5,87.1,215.9,84,213.9,82.8z"/>
						<path class="st21" d="M213.9,82.8l-42.5-24.5l-7.3,4.2l53.5,30.9v-3.6C217.5,87.1,215.9,84,213.9,82.8z"/>
					</g>
					<polygon class="st18" points="217.5,93.4 164.1,62.5 164.1,79.5 217.5,110.4 					"/>
					<polygon class="st18" points="217.5,120.3 164.1,89.4 164.1,106.4 217.5,137.3 					"/>
					<polygon class="st18" points="217.5,147.2 164.1,116.3 164.1,133.3 217.5,164.2 					"/>
					<polygon class="st18" points="217.5,174.1 164.1,143.2 164.1,160.3 217.5,191.1 					"/>
					<polygon class="st18" points="217.5,201 164.1,170.2 164.1,187.2 217.5,218 					"/>
				</g>
				<g>
					<path class="st21" d="M212.8,104.3L172.5,81c-1.1-0.7-2.1-2.4-2.1-3.9v-4.6c0-1.5,0.9-2.2,2.1-1.6l40.3,23.3
						c1.1,0.7,2.1,2.4,2.1,3.9v4.6C214.9,104.3,214,105,212.8,104.3z"/>
					<path class="st23" d="M174.6,80.2c-1.1-0.7-2.1-2.4-2.1-3.9v-4.6c0-0.2,0-0.5,0.1-0.7h-0.1c-1.1-0.7-2.1,0-2.1,1.6v4.6
						c0,1.5,0.9,3.3,2.1,3.9l40.3,23.3c1,0.6,1.8,0.1,2-0.9L174.6,80.2z"/>
					<path class="st0" d="M200.2,91.8l-24.2-14c-0.4-0.2-0.7-0.9-0.7-1.4l0,0c0-0.5,0.3-0.8,0.7-0.5l24.2,14
						c0.4,0.2,0.7,0.9,0.7,1.4l0,0C200.9,91.8,200.6,92.1,200.2,91.8z"/>
				</g>
				<g>
					<path class="st21" d="M212.8,131.1l-40.3-23.3c-1.1-0.7-2.1-2.4-2.1-3.9v-4.6c0-1.5,0.9-2.2,2.1-1.6l40.3,23.3
						c1.1,0.7,2.1,2.4,2.1,3.9v4.6C214.9,131,214,131.7,212.8,131.1z"/>
					<path class="st23" d="M174.6,106.9c-1.1-0.7-2.1-2.4-2.1-3.9v-4.6c0-0.2,0-0.5,0.1-0.7h-0.1c-1.1-0.7-2.1,0-2.1,1.6v4.6
						c0,1.5,0.9,3.3,2.1,3.9l40.3,23.3c1,0.6,1.8,0.1,2-0.9L174.6,106.9z"/>
					<path class="st0" d="M200.2,118.6l-24.2-14c-0.4-0.2-0.7-0.9-0.7-1.4l0,0c0-0.5,0.3-0.8,0.7-0.5l24.2,14
						c0.4,0.2,0.7,0.9,0.7,1.4l0,0C200.9,118.6,200.6,118.8,200.2,118.6z"/>
				</g>
				<g>
					<path class="st21" d="M212.8,158.1l-40.3-23.3c-1.1-0.7-2.1-2.4-2.1-3.9v-4.6c0-1.5,0.9-2.2,2.1-1.6l40.3,23.3
						c1.1,0.7,2.1,2.4,2.1,3.9v4.6C214.9,158,214,158.7,212.8,158.1z"/>
					<path class="st23" d="M174.6,133.9c-1.1-0.7-2.1-2.4-2.1-3.9v-4.6c0-0.2,0-0.5,0.1-0.7h-0.1c-1.1-0.7-2.1,0-2.1,1.6v4.6
						c0,1.5,0.9,3.3,2.1,3.9l40.3,23.3c1,0.6,1.8,0.1,2-0.9L174.6,133.9z"/>
					<path class="st24" d="M200.2,145.6l-24.2-14c-0.4-0.2-0.7-0.9-0.7-1.4l0,0c0-0.5,0.3-0.8,0.7-0.5l24.2,14
						c0.4,0.2,0.7,0.9,0.7,1.4l0,0C200.9,145.6,200.6,145.8,200.2,145.6z"/>
				</g>
				<g>
					<path class="st21" d="M212.8,185.3L172.5,162c-1.1-0.7-2.1-2.4-2.1-3.9v-4.6c0-1.5,0.9-2.2,2.1-1.6l40.3,23.3
						c1.1,0.7,2.1,2.4,2.1,3.9v4.6C214.9,185.3,214,186,212.8,185.3z"/>
					<path class="st23" d="M174.6,161.2c-1.1-0.7-2.1-2.4-2.1-3.9v-4.6c0-0.2,0-0.5,0.1-0.7h-0.1c-1.1-0.7-2.1,0-2.1,1.6v4.6
						c0,1.5,0.9,3.3,2.1,3.9l40.3,23.3c1,0.6,1.8,0.1,2-0.9L174.6,161.2z"/>
					<path class="st25" d="M200.2,172.8l-24.2-14c-0.4-0.2-0.7-0.9-0.7-1.4l0,0c0-0.5,0.3-0.8,0.7-0.5l24.2,14
						c0.4,0.2,0.7,0.9,0.7,1.4l0,0C200.9,172.8,200.6,173.1,200.2,172.8z"/>
				</g>
				<g>
					<path class="st21" d="M212.8,212l-40.3-23.3c-1.1-0.7-2.1-2.4-2.1-3.9v-4.6c0-1.5,0.9-2.2,2.1-1.6l40.3,23.3
						c1.1,0.7,2.1,2.4,2.1,3.9v4.6C214.9,212,214,212.7,212.8,212z"/>
					<path class="st23" d="M174.6,187.9c-1.1-0.7-2.1-2.4-2.1-3.9v-4.6c0-0.2,0-0.5,0.1-0.7h-0.1c-1.1-0.7-2.1,0-2.1,1.6v4.6
						c0,1.5,0.9,3.3,2.1,3.9l40.3,23.3c1,0.6,1.8,0.1,2-0.9L174.6,187.9z"/>
					<path class="st24" d="M200.2,199.5l-24.2-14c-0.4-0.2-0.7-0.9-0.7-1.4l0,0c0-0.5,0.3-0.8,0.7-0.5l24.2,14
						c0.4,0.2,0.7,0.9,0.7,1.4l0,0C200.9,199.5,200.6,199.8,200.2,199.5z"/>
				</g>
				<polygon class="st26" points="164.1,62.5 168.3,64.9 168.3,81.9 164.1,79.5 				"/>
				<polygon class="st26" points="164.1,89.4 168.3,91.8 168.3,108.9 164.1,106.4 				"/>
				<polygon class="st26" points="164.1,116.3 168.3,118.8 168.3,135.8 164.1,133.3 				"/>
				<polygon class="st26" points="164.1,143.2 168.3,145.7 168.3,162.7 164.1,160.3 				"/>
				<polygon class="st26" points="164.1,170.2 168.3,172.6 168.3,189.6 164.1,187.2 				"/>
			</g>
			<path class="st24" d="M205,93.5c0,0.5-0.4,0.8-0.9,0.5s-0.9-0.9-0.9-1.5c0-0.5,0.4-0.8,0.9-0.5S205,93,205,93.5z"/>
			<path class="st25" d="M208.6,95.6c0,0.5-0.4,0.8-0.9,0.5s-0.9-0.9-0.9-1.5s0.4-0.8,0.9-0.5S208.6,95,208.6,95.6z"/>
			<path class="st24" d="M212.2,97.7c0,0.5-0.4,0.8-0.9,0.5s-0.9-0.9-0.9-1.5s0.4-0.8,0.9-0.5S212.2,97.1,212.2,97.7z"/>
			<path class="st25" d="M205,120.4c0,0.5-0.4,0.8-0.9,0.5s-0.9-0.9-0.9-1.5s0.4-0.8,0.9-0.5S205,119.9,205,120.4z"/>
			<path class="st24" d="M208.6,122.5c0,0.5-0.4,0.8-0.9,0.5s-0.9-0.9-0.9-1.5s0.4-0.8,0.9-0.5C208.2,121.3,208.6,122,208.6,122.5z"
				/>
			<path class="st0" d="M212.2,124.6c0,0.5-0.4,0.8-0.9,0.5s-0.9-0.9-0.9-1.5c0-0.5,0.4-0.8,0.9-0.5S212.2,124,212.2,124.6z"/>
			<path class="st0" d="M205,147.5c0,0.5-0.4,0.8-0.9,0.5s-0.9-0.9-0.9-1.5c0-0.5,0.4-0.8,0.9-0.5S205,147,205,147.5z"/>
			<path class="st25" d="M208.6,149.6c0,0.5-0.4,0.8-0.9,0.5s-0.9-0.9-0.9-1.5s0.4-0.8,0.9-0.5S208.6,149.1,208.6,149.6z"/>
			<path class="st0" d="M212.2,151.7c0,0.5-0.4,0.8-0.9,0.5s-0.9-0.9-0.9-1.5s0.4-0.8,0.9-0.5S212.2,151.1,212.2,151.7z"/>
			<path class="st0" d="M205,174.2c0,0.5-0.4,0.8-0.9,0.5s-0.9-0.9-0.9-1.5s0.4-0.8,0.9-0.5S205,173.7,205,174.2z"/>
			<path class="st24" d="M208.6,176.3c0,0.5-0.4,0.8-0.9,0.5s-0.9-0.9-0.9-1.5s0.4-0.8,0.9-0.5S208.6,175.8,208.6,176.3z"/>
			<path class="st24" d="M212.2,178.4c0,0.5-0.4,0.8-0.9,0.5s-0.9-0.9-0.9-1.5c0-0.5,0.4-0.8,0.9-0.5S212.2,177.9,212.2,178.4z"/>
			<path class="st0" d="M205,201.3c0,0.5-0.4,0.8-0.9,0.5s-0.9-0.9-0.9-1.5c0-0.5,0.4-0.8,0.9-0.5S205,200.8,205,201.3z"/>
			<path class="st25" d="M208.6,203.4c0,0.5-0.4,0.8-0.9,0.5s-0.9-0.9-0.9-1.5s0.4-0.8,0.9-0.5S208.6,202.9,208.6,203.4z"/>
			<path class="st24" d="M212.2,205.5c0,0.5-0.4,0.8-0.9,0.5s-0.9-0.9-0.9-1.5s0.4-0.8,0.9-0.5S212.2,204.9,212.2,205.5z"/>
			<g>
				<path class="st21" d="M230.7,213.3V92.8l0.2-0.1l50.3-29.1V184l-0.2,0.1L230.7,213.3z M231.7,93.4v118.1l48.6-28.1v-118
					L231.7,93.4z"/>
			</g>
			<g>
				<path class="st21" d="M268.2,117.8l-22.6,13c-1.5,0.9-2.7-0.1-2.7-2.1v-12.5c0-2,1.2-4.4,2.7-5.2l22.6-13
					c1.5-0.9,2.7,0.1,2.7,2.1v12.5C270.9,114.6,269.7,116.9,268.2,117.8z"/>
				<path class="st18" d="M268.7,97.7c0.1,0.3,0.2,0.8,0.2,1.3v12.5c0,2-1.2,4.4-2.7,5.2l-22.6,13c-0.2,0.1-0.4,0.2-0.5,0.2
					c0.4,1.1,1.4,1.5,2.5,0.8l22.6-13c1.5-0.9,2.7-3.2,2.7-5.2V100C270.9,98.3,270,97.4,268.7,97.7z"/>
				<g>
					<g>
						<path class="st0" d="M264.1,110.3c0.4-0.2,0.8,0,0.8,0.4v2.9c0,0.5-0.3,1.1-0.8,1.3c-0.4,0.2-0.8,0-0.8-0.4v-2.9
							C263.3,111.1,263.7,110.5,264.1,110.3z"/>
						<path class="st24" d="M260.8,112.5c0.4-0.2,0.8,0,0.8,0.4v2.5c0,0.5-0.3,1.1-0.8,1.3c-0.4,0.2-0.8,0-0.8-0.4v-2.5
							C260.1,113.3,260.4,112.7,260.8,112.5z"/>
						<path class="st25" d="M257.6,111.6c0.4-0.2,0.8,0,0.8,0.4v5.3c0,0.5-0.3,1.1-0.8,1.3c-0.4,0.2-0.8,0-0.8-0.4v-5.3
							C256.8,112.4,257.2,111.8,257.6,111.6z"/>
						<path class="st24" d="M254.4,110.4c0.4-0.2,0.8,0,0.8,0.4v8.3c0,0.5-0.3,1.1-0.8,1.3c-0.4,0.2-0.8,0-0.8-0.4v-8.3
							C253.6,111.2,253.9,110.7,254.4,110.4z"/>
						<path class="st24" d="M251.1,113.2c0.4-0.2,0.8,0,0.8,0.4v7.4c0,0.5-0.3,1.1-0.8,1.3c-0.4,0.2-0.8,0-0.8-0.4v-7.4
							C250.4,114,250.7,113.4,251.1,113.2z"/>
						<path class="st0" d="M247.9,118.4c0.4-0.2,0.8,0,0.8,0.4v4c0,0.5-0.3,1.1-0.8,1.3c-0.4,0.2-0.8,0-0.8-0.4v-4
							C247.1,119.3,247.5,118.7,247.9,118.4z"/>
					</g>
					<path class="st25" d="M263.3,108.8c0,0.5,0.3,0.7,0.7,0.4c0.4-0.2,0.7-0.8,0.7-1.3s-0.3-0.7-0.7-0.4
						C263.7,107.8,263.3,108.4,263.3,108.8z"/>
					<path class="st0" d="M263.3,106.2c0,0.5,0.3,0.7,0.7,0.4c0.4-0.2,0.7-0.8,0.7-1.3s-0.3-0.7-0.7-0.4
						C263.7,105.1,263.3,105.7,263.3,106.2z"/>
				</g>
			</g>
		</g>
	</g>
</g>
<rect x="346.5" y="41.5" class="st0" width="3.4" height="66.6"/>
<g>
	<path class="st3" d="M217.9,320.5l-34.5-19.9c-2.1-1.2-1.9-3.4,0.6-4.8l33.3-19.2c2.4-1.4,6.1-1.6,8.3-0.3l34.5,19.9
		c2.1,1.2,1.9,3.4-0.6,4.8l-33.3,19.2C223.8,321.6,220.1,321.7,217.9,320.5z"/>
	<path class="st0" d="M221.6,312.4c-1.7,0-3.3-0.4-4.6-1.1l0,0l-34.5-19.9c-1.5-0.9-2.4-2.3-2.4-3.8c0-1.7,1.1-3.3,3-4.4l33.3-19.2
		c3.1-1.8,7.5-1.9,10.2-0.3l34.5,19.9c1.5,0.9,2.4,2.3,2.4,3.8c0,1.7-1.1,3.3-3,4.4l-33.3,19.1C225.5,311.9,223.5,312.4,221.6,312.4
		z M218.9,307.9c1.5,0.9,4.5,0.7,6.3-0.3l33.3-19.2c0.8-0.5,1-0.9,1-1c0,0-0.1-0.2-0.4-0.4l-34.5-19.9c-1.5-0.9-4.5-0.7-6.3,0.3
		L185,286.6c-0.8,0.5-1,0.9-1,1c0,0,0.1,0.2,0.4,0.4L218.9,307.9L218.9,307.9z"/>
	<path class="st22" d="M261.5,275.1L261.5,275.1v-11.9h-26.7l-9.2-5.3c-2.1-1.2-5.8-1.1-8.3,0.3l-8.6,5H182v12.2
		c-0.1,0.8,0.4,1.6,1.4,2.2l34.5,19.9c2.1,1.2,5.8,1.1,8.3-0.3l33.3-19.2C260.9,277.1,261.6,276.1,261.5,275.1z"/>
	
		<radialGradient id="SVGID_17_" cx="184.2013" cy="781.9106" r="43.6226" gradientTransform="matrix(1 0 0 1 0 -522.2846)" gradientUnits="userSpaceOnUse">
		<stop  offset="0" style="stop-color:#699DD1"/>
		<stop  offset="0.2662" style="stop-color:#6396CC"/>
		<stop  offset="0.6412" style="stop-color:#5184BD"/>
		<stop  offset="1" style="stop-color:#396CAA"/>
	</radialGradient>
	<path class="st27" d="M221.8,257c-1.6,0-3.2,0.4-4.4,1.2l-8.6,5h-26.7v12.2c-0.1,0.8,0.4,1.6,1.4,2.2l34.5,19.9
		c1,0.6,2.4,0.9,3.8,0.8V257L221.8,257z"/>
	<path class="st24" d="M185,263.1h-3v12.2c-0.1,0.8,0.4,1.6,1.4,2.2l1.6,0.9V263.1z"/>
	<path class="st18" d="M218.5,297.8c1.8,0.8,4.5,0.7,6.6-0.1v-13.9h-6.6V297.8z"/>
	
		<linearGradient id="SVGID_18_" gradientUnits="userSpaceOnUse" x1="192.3983" y1="767.9855" x2="260.729" y2="808.7233" gradientTransform="matrix(1 0 0 1 0 -522.2846)">
		<stop  offset="0" style="stop-color:#D4ECFF"/>
		<stop  offset="0.2009" style="stop-color:#D0EAFE"/>
		<stop  offset="0.3874" style="stop-color:#C5E2F9"/>
		<stop  offset="0.5682" style="stop-color:#B2D6F2"/>
		<stop  offset="0.7444" style="stop-color:#98C4E7"/>
		<stop  offset="0.8423" style="stop-color:#86B8E0"/>
	</linearGradient>
	<path class="st28" d="M217.9,285.3l-34.5-19.9c-2.1-1.2-1.9-3.4,0.6-4.8l33.3-19.2c2.4-1.4,6.1-1.6,8.3-0.3l34.5,19.9
		c2.1,1.2,1.9,3.4-0.6,4.8L226.2,285C223.8,286.4,220.1,286.5,217.9,285.3z"/>
	<path class="st0" d="M259.5,263.4l-33.3,19.2c-2.4,1.4-6.1,1.6-8.3,0.3L183.4,263c-0.5-0.3-0.8-0.6-1.1-0.9
		c-0.7,1.2-0.4,2.4,1.1,3.3l34.5,19.9c2.1,1.2,5.8,1.1,8.3-0.3l33.3-19.2c1.9-1.1,2.5-2.6,1.7-3.8
		C260.9,262.4,260.3,262.9,259.5,263.4z"/>
	<g>
		<path class="st24" d="M248.9,278.2c0,0.9-0.6,2-1.4,2.4s-1.4,0.1-1.4-0.8s0.6-2,1.4-2.4C248.2,277,248.9,277.3,248.9,278.2z"/>
		<path class="st24" d="M253.3,275.6c0,0.9-0.6,2-1.4,2.4s-1.4,0.1-1.4-0.8s0.6-2,1.4-2.4C252.7,274.4,253.3,274.7,253.3,275.6z"/>
		<path class="st24" d="M257.8,273c0,0.9-0.6,2-1.4,2.4c-0.8,0.4-1.4,0.1-1.4-0.8s0.6-2,1.4-2.4C257.2,271.8,257.8,272.2,257.8,273z
			"/>
	</g>
	<g>
		<path class="st18" d="M220,273l-16.1-9.3c-1-0.6-0.9-1.6,0.3-2.2l15.6-9c1.1-0.7,2.9-0.7,3.9-0.2l16.1,9.3c1,0.6,0.9,1.6-0.3,2.2
			l-15.6,9C222.7,273.5,221,273.5,220,273z"/>
		<path class="st24" d="M221.5,265.2l-2.2-1.3c-0.1-0.1-0.1-0.2,0-0.3l2.2-1.2c0.2-0.1,0.4-0.1,0.5,0l2.2,1.3c0.1,0.1,0.1,0.2,0,0.3
			l-2.2,1.2C221.9,265.2,221.7,265.2,221.5,265.2z"/>
		<path class="st22" d="M203.8,263.6L203.8,263.6c0.1,0,0.2-0.1,0.3-0.1l15.6-9c1.1-0.7,2.9-0.7,3.9-0.2l16.1,9.3
			c0.9-0.7,1-1.5,0-2.1l-16.1-9.3c-1-0.6-2.7-0.5-3.9,0.2l-15.6,9C203,262.1,202.8,263.1,203.8,263.6z"/>
	</g>
</g>
<g>
	<path class="st3" d="M344.4,232.6l-34.5-19.9c-2.1-1.2-1.9-3.4,0.6-4.8l33.3-19.2c2.4-1.4,6.1-1.6,8.3-0.3l34.5,19.9
		c2.1,1.2,1.9,3.4-0.6,4.8l-33.3,19.1C350.2,233.6,346.5,233.8,344.4,232.6z"/>
	<path class="st0" d="M348,224.5c-1.7,0-3.3-0.4-4.6-1.1l0,0l-34.5-19.9c-1.5-0.9-2.4-2.3-2.4-3.8c0-1.7,1.1-3.3,3-4.4l33.3-19.2
		c3.1-1.8,7.5-1.9,10.2-0.3l34.5,19.9c1.5,0.9,2.4,2.3,2.4,3.8c0,1.7-1.1,3.3-3,4.4L353.7,223C352,224,350,224.5,348,224.5z
		 M345.4,220c1.5,0.9,4.5,0.7,6.3-0.3l33.3-19.2c0.8-0.5,1-0.9,1-1c0,0-0.1-0.2-0.4-0.4l-34.5-19.9c-1.5-0.9-4.5-0.7-6.3,0.3
		l-33.3,19.2c-0.8,0.5-1,0.9-1,1c0,0,0.1,0.2,0.4,0.4L345.4,220L345.4,220z"/>
	<path class="st22" d="M388,187.2L388,187.2v-11.9h-26.7l-9.2-5.3c-2.1-1.2-5.8-1.1-8.3,0.3l-8.6,5h-26.7v12.2
		c-0.1,0.8,0.4,1.6,1.4,2.2l34.5,19.9c2.1,1.2,5.8,1.1,8.3-0.3l33.3-19.2C387.4,189.2,388.1,188.2,388,187.2z"/>
	
		<radialGradient id="SVGID_19_" cx="310.6753" cy="693.9929" r="43.6227" gradientTransform="matrix(1 0 0 1 0 -522.2846)" gradientUnits="userSpaceOnUse">
		<stop  offset="0" style="stop-color:#699DD1"/>
		<stop  offset="0.2662" style="stop-color:#6396CC"/>
		<stop  offset="0.6412" style="stop-color:#5184BD"/>
		<stop  offset="1" style="stop-color:#396CAA"/>
	</radialGradient>
	<path class="st29" d="M348.3,169.1c-1.6,0-3.2,0.4-4.4,1.2l-8.6,5h-26.7v12.2c-0.1,0.8,0.4,1.6,1.4,2.2l34.5,19.9
		c1,0.6,2.4,0.9,3.8,0.8L348.3,169.1L348.3,169.1z"/>
	<path class="st24" d="M311.5,175.2h-3v12.2c-0.1,0.8,0.4,1.6,1.4,2.2l1.6,0.9V175.2z"/>
	<path class="st18" d="M345,209.9c1.8,0.8,4.5,0.7,6.6-0.1v-13.9H345V209.9z"/>
	
		<linearGradient id="SVGID_20_" gradientUnits="userSpaceOnUse" x1="318.8713" y1="680.0694" x2="387.202" y2="720.8073" gradientTransform="matrix(1 0 0 1 0 -522.2846)">
		<stop  offset="0" style="stop-color:#D4ECFF"/>
		<stop  offset="0.2009" style="stop-color:#D0EAFE"/>
		<stop  offset="0.3874" style="stop-color:#C5E2F9"/>
		<stop  offset="0.5682" style="stop-color:#B2D6F2"/>
		<stop  offset="0.7444" style="stop-color:#98C4E7"/>
		<stop  offset="0.8423" style="stop-color:#86B8E0"/>
	</linearGradient>
	<path class="st30" d="M344.4,197.4l-34.5-19.9c-2.1-1.2-1.9-3.4,0.6-4.8l33.3-19.2c2.4-1.4,6.1-1.6,8.3-0.3l34.5,19.9
		c2.1,1.2,1.9,3.4-0.6,4.8l-33.3,19.2C350.2,198.5,346.5,198.6,344.4,197.4z"/>
	<path class="st0" d="M386,175.5l-33.3,19.2c-2.4,1.4-6.1,1.6-8.3,0.3l-34.5-19.9c-0.5-0.3-0.8-0.6-1.1-0.9
		c-0.7,1.2-0.4,2.4,1.1,3.3l34.5,19.9c2.1,1.2,5.8,1.1,8.3-0.3l33.3-19.2c1.9-1.1,2.5-2.6,1.7-3.8C387.3,174.5,386.8,175,386,175.5z
		"/>
	<g>
		<path class="st24" d="M375.3,190.3c0,0.9-0.6,2-1.4,2.4s-1.4,0.1-1.4-0.8c0-0.9,0.6-2,1.4-2.4S375.3,189.4,375.3,190.3z"/>
		<path class="st24" d="M379.8,187.7c0,0.9-0.6,2-1.4,2.4s-1.4,0.1-1.4-0.8s0.6-2,1.4-2.4S379.8,186.8,379.8,187.7z"/>
		<path class="st24" d="M384.3,185.1c0,0.9-0.6,2-1.4,2.4s-1.4,0.1-1.4-0.8c0-0.9,0.6-2,1.4-2.4S384.3,184.2,384.3,185.1z"/>
	</g>
	<g>
		<path class="st18" d="M346.5,185l-16.1-9.3c-1-0.6-0.9-1.6,0.3-2.2l15.6-9c1.1-0.7,2.9-0.7,3.9-0.2l16.1,9.3
			c1,0.6,0.9,1.6-0.3,2.2l-15.6,9C349.2,185.5,347.5,185.6,346.5,185z"/>
		<path class="st24" d="M348,177.2l-2.2-1.3c-0.1-0.1-0.1-0.2,0-0.3l2.2-1.2c0.2-0.1,0.4-0.1,0.5,0l2.2,1.3c0.1,0.1,0.1,0.2,0,0.3
			l-2.2,1.2C348.4,177.3,348.1,177.3,348,177.2z"/>
		<path class="st22" d="M330.3,175.7L330.3,175.7c0.1,0,0.2-0.1,0.3-0.1l15.6-9c1.1-0.7,2.9-0.7,3.9-0.2l16.1,9.3
			c0.9-0.7,1-1.5,0-2.1l-16.1-9.3c-1-0.6-2.7-0.5-3.9,0.2l-15.6,9C329.4,174.1,329.3,175.1,330.3,175.7z"/>
	</g>
</g>
<g>
	<path class="st3" d="M91.5,232.6L57,212.7c-2.1-1.2-1.9-3.4,0.6-4.8l33.3-19.2c2.4-1.4,6.1-1.6,8.3-0.3l34.5,19.9
		c2.1,1.2,1.9,3.4-0.6,4.8l-33.4,19.1C97.3,233.6,93.6,233.8,91.5,232.6z"/>
	<path class="st0" d="M95.1,224.5c-1.7,0-3.3-0.4-4.6-1.1l0,0L56,203.5c-1.5-0.9-2.4-2.3-2.4-3.8c0-1.7,1.1-3.3,3-4.4l33.3-19.2
		c3.1-1.8,7.5-1.9,10.2-0.3l34.5,19.9c1.5,0.9,2.4,2.3,2.4,3.8c0,1.7-1.1,3.3-3,4.4L100.7,223C99.1,224,97,224.5,95.1,224.5z
		 M92.5,220c1.5,0.9,4.5,0.7,6.3-0.3l33.3-19.2c0.8-0.5,1-0.9,1-1c0,0-0.1-0.2-0.4-0.4l-34.5-19.9c-1.5-0.9-4.5-0.7-6.3,0.3
		l-33.3,19.2c-0.8,0.5-1,0.9-1,1c0,0,0.1,0.2,0.4,0.4L92.5,220L92.5,220z"/>
	<path class="st22" d="M135.1,187.2L135.1,187.2v-11.9h-26.7l-9.2-5.3c-2.1-1.2-5.8-1.1-8.3,0.3l-8.6,5H55.6v12.2
		c-0.1,0.8,0.4,1.6,1.4,2.2l34.5,19.9c2.1,1.2,5.8,1.1,8.3-0.3l33.3-19.2C134.5,189.2,135.2,188.2,135.1,187.2z"/>
	
		<radialGradient id="SVGID_21_" cx="57.7331" cy="693.9929" r="43.6227" gradientTransform="matrix(1 0 0 1 0 -522.2846)" gradientUnits="userSpaceOnUse">
		<stop  offset="0" style="stop-color:#699DD1"/>
		<stop  offset="0.2662" style="stop-color:#6396CC"/>
		<stop  offset="0.6412" style="stop-color:#5184BD"/>
		<stop  offset="1" style="stop-color:#396CAA"/>
	</radialGradient>
	<path class="st31" d="M95.3,169.1c-1.6,0-3.2,0.4-4.4,1.2l-8.6,5H55.6v12.2c-0.1,0.8,0.4,1.6,1.4,2.2l34.5,19.9
		c1,0.6,2.4,0.9,3.8,0.8V169.1L95.3,169.1z"/>
	<path class="st24" d="M58.6,175.2h-3v12.2c-0.1,0.8,0.4,1.6,1.4,2.2l1.6,0.9V175.2z"/>
	<path class="st18" d="M92,209.9c1.8,0.8,4.5,0.7,6.6-0.1v-13.9H92V209.9z"/>
	
		<linearGradient id="SVGID_22_" gradientUnits="userSpaceOnUse" x1="65.9402" y1="680.0509" x2="134.2709" y2="720.7887" gradientTransform="matrix(1 0 0 1 0 -522.2846)">
		<stop  offset="0" style="stop-color:#D4ECFF"/>
		<stop  offset="0.2009" style="stop-color:#D0EAFE"/>
		<stop  offset="0.3874" style="stop-color:#C5E2F9"/>
		<stop  offset="0.5682" style="stop-color:#B2D6F2"/>
		<stop  offset="0.7444" style="stop-color:#98C4E7"/>
		<stop  offset="0.8423" style="stop-color:#86B8E0"/>
	</linearGradient>
	<path class="st32" d="M91.5,197.4L57,177.5c-2.1-1.2-1.9-3.4,0.6-4.8l33.3-19.2c2.4-1.4,6.1-1.6,8.3-0.3l34.5,19.9
		c2.1,1.2,1.9,3.4-0.6,4.8l-33.4,19.2C97.3,198.5,93.6,198.6,91.5,197.4z"/>
	<path class="st0" d="M133.1,175.5l-33.4,19.2c-2.4,1.4-6.1,1.6-8.3,0.3l-34.5-19.9c-0.5-0.3-0.8-0.6-1.1-0.9
		c-0.7,1.2-0.4,2.4,1.1,3.3l34.5,19.9c2.1,1.2,5.8,1.1,8.3-0.3l33.3-19.2c1.9-1.1,2.5-2.6,1.7-3.8
		C134.4,174.5,133.8,175,133.1,175.5z"/>
	<g>
		<path class="st24" d="M122.4,190.3c0,0.9-0.6,2-1.4,2.4s-1.4,0.1-1.4-0.8c0-0.9,0.6-2,1.4-2.4S122.4,189.4,122.4,190.3z"/>
		<path class="st24" d="M126.9,187.7c0,0.9-0.6,2-1.4,2.4s-1.4,0.1-1.4-0.8s0.6-2,1.4-2.4C126.2,186.5,126.9,186.8,126.9,187.7z"/>
		<path class="st24" d="M131.4,185.1c0,0.9-0.6,2-1.4,2.4s-1.4,0.1-1.4-0.8c0-0.9,0.6-2,1.4-2.4
			C130.7,183.9,131.4,184.2,131.4,185.1z"/>
	</g>
	<g>
		<path class="st18" d="M93.5,185l-16.1-9.3c-1-0.6-0.9-1.6,0.3-2.2l15.6-9c1.1-0.7,2.9-0.7,3.9-0.2l16.1,9.3c1,0.6,0.9,1.6-0.3,2.2
			l-15.6,9C96.2,185.5,94.5,185.6,93.5,185z"/>
		<path class="st24" d="M95.1,177.2l-2.2-1.3c-0.1-0.1-0.1-0.2,0-0.3l2.2-1.2c0.2-0.1,0.4-0.1,0.5,0l2.2,1.3c0.1,0.1,0.1,0.2,0,0.3
			l-2.2,1.2C95.4,177.3,95.2,177.3,95.1,177.2z"/>
		<path class="st22" d="M77.4,175.7L77.4,175.7c0.1,0,0.2-0.1,0.3-0.1l15.6-9c1.1-0.7,2.9-0.7,3.9-0.2l16.1,9.3c0.9-0.7,1-1.5,0-2.1
			l-16.1-9.3c-1-0.6-2.7-0.5-3.9,0.2l-15.6,9C76.5,174.1,76.4,175.1,77.4,175.7z"/>
	</g>
</g>
</svg>
