<svg xmlns="http://www.w3.org/2000/svg" width="83" height="82" viewBox="0 0 83 82" fill="none"><path fill-rule="evenodd" clip-rule="evenodd" d="M13.8907 -0.00598145C6.71371 -0.00598145 0.89563 5.8121 0.89563 12.9891V68.218C0.89563 75.395 6.71371 81.2131 13.8907 81.2131H69.1197C76.2966 81.2131 82.1147 75.395 82.1147 68.218V12.9891C82.1147 5.8121 76.2966 -0.00598145 69.1197 -0.00598145H13.8907ZM56.3413 66.7393C56.3417 66.7415 56.342 66.7437 56.3424 66.7458L56.3447 66.7417C56.3436 66.7409 56.3424 66.7401 56.3413 66.7393ZM56.3413 66.7393C56.1683 65.6469 56.1352 63.5095 56.3359 60.47C56.4595 58.6001 56.9541 56.7718 57.5473 54.9943C58.5195 52.0802 59.9793 49.3842 61.437 46.692C61.5376 46.5061 61.6383 46.3202 61.7388 46.1342C61.8121 45.9986 61.8858 45.8625 61.9599 45.7258C63.4171 43.0352 64.9946 40.1227 65.3906 37.0706C65.9372 32.8519 63.0005 28.672 60.478 25.5723C57.0182 21.3213 52.7875 17.6813 48.3708 14.4612C48.786 18.4875 48.9849 22.7307 48.6938 26.8441C48.417 30.7319 47.5548 34.5409 46.3258 38.2344C45.6474 40.2715 44.8611 42.2711 43.9704 44.2247C43.6885 44.8425 43.6622 44.8582 42.9855 44.795C42.4651 44.7461 41.9453 44.6904 41.4262 44.628C40.3301 44.4966 39.2383 44.3354 38.1509 44.1444C34.2957 43.4678 30.4691 42.4397 26.887 40.8486C22.6641 38.9746 18.6986 36.4998 14.9744 33.7771C15.4094 37.9021 16.1632 42.0226 17.3271 46.0059C18.3937 49.6588 19.7767 53.3833 22.0957 56.4391C23.255 57.9675 24.7165 59.3283 26.5543 59.9721C28.1943 60.5461 29.9681 60.7833 31.6925 60.9411C33.4064 61.1003 35.1266 61.1489 36.8467 61.1975C38.8068 61.2528 40.7668 61.3082 42.7179 61.5272C47.6729 62.0808 52.2798 63.8335 56.3413 66.7393Z" fill="#9949FF"/></svg>