<?xml version="1.0" encoding="utf-8"?>
<!-- Generator: Adobe Illustrator 20.1.0, SVG Export Plug-In . SVG Version: 6.00 Build 0)  -->
<svg version="1.1" id="Layer_1" xmlns="http://www.w3.org/2000/svg" xmlns:xlink="http://www.w3.org/1999/xlink" x="0px" y="0px"
	 width="964.8" height="964.8" viewBox="0 0 964.8 964.8" style="enable-background:new 0 0 964.8 964.8;" xml:space="preserve">
<style type="text/css">
	.st0{fill:url(#Fill-6_1_);}
</style>
<g id="Symbols">
	<g id="Logo-_x28_Colour_x29_">
		<g id="Logo">
			<linearGradient id="Fill-6_1_" gradientUnits="userSpaceOnUse" x1="-9.536743e-07" y1="482.3021" x2="964.9999" y2="482.3021">
				<stop  offset="0" style="stop-color:#0F488A"/>
				<stop  offset="1" style="stop-color:#009BDE"/>
			</linearGradient>
			<path id="Fill-6" class="st0" d="M887.5,296.6L887.5,296.6c7.9-0.6,14.2-7.1,14.2-15.2c0-5.8-3.3-10.9-8.1-13.4l-3.9-2.4
				L727,164.1l0,0c-2.4-1.6-5.2-2.5-8.3-2.5c-8.4,0-15.1,6.7-15.1,15.1c0,5.7,3.1,10.7,7.8,13.2l8,5L839.7,270
				c-18.6,2.9-35.9,7.4-52,14.1l-44.2-27.6c-2.4-1.7-5.4-2.7-8.6-2.7c-8.3,0-15.1,6.8-15.1,15.1c0,5.4,2.9,10.2,7.1,12.9l0.1,0.1
				l0.3,0.2l29.8,18.6c25.4,15.8,25.2,17.7,51.4,8.7C832.1,300.8,858.2,297.7,887.5,296.6L887.5,296.6z M671.2,457.8L671.2,457.8
				l-110.5-69c-2.5-1.8-5.5-2.8-8.7-2.8c-8.4,0-15.2,6.7-15.2,15.1c0,5.2,2.7,9.9,6.7,12.6l0,0l0.3,0.2l0.3,0.2l74.3,46.4l20.3,12.7
				l15.5,9.7c2.5,1.8,5.5,2.9,8.8,2.9c8.3,0,15.1-6.8,15.1-15.1C678.2,465.2,675.4,460.5,671.2,457.8L671.2,457.8z M150.3,732
				c3.8,0,7.2,1.5,9.8,3.8c53.7,39.1,118.1,60.1,184.9,60.3c3.2,0,6.5,0,9.7-0.1l11.1-0.3L148.1,659.8v-0.1
				c-4.2-2.7-6.9-7.4-6.9-12.7c0-8.3,6.8-15.1,15.2-15.1c3.5,0,6.7,1.2,9.3,3.2l242.7,151.4c26.7,15.8,32.5,25.2-2.7,33.5l-1.7,0.3
				c-19.5,3.3-39.2,5-59,4.9c-73.6-0.2-144.4-23.5-203.3-66.9c-0.2-0.2-0.3-0.3-0.4-0.4c-3.4-2.7-5.5-6.8-5.5-11.5
				C135.7,738.5,142.2,731.9,150.3,732L150.3,732z M112.1,601.7c4.8,2.6,8,7.6,8,13.3c0,8.4-6.8,15.1-15.1,15.1
				c-2.9,0-5.6-0.8-7.9-2.2l-0.2-0.2l-76.9-48c-5-2.5-8.4-7.6-8.4-13.6c0-8.3,6.8-15.1,15.2-15.1c3,0,5.8,0.9,8.1,2.4l0,0
				L112.1,601.7z M208.7,579.9L23.9,464.5c-2.5-1.8-5.5-2.8-8.8-2.8c-8.3,0-15.1,6.7-15.1,15.1c0,5.4,2.9,10.2,7.1,12.9l0,0
				L193,605.6c2.5,1.7,5.5,2.8,8.7,2.8c8.3,0,15.1-6.8,15.1-15.1C216.8,587.5,213.5,582.5,208.7,579.9L208.7,579.9z M377.5,192.3
				c4.1,2.7,6.8,7.4,6.8,12.6c0,8.4-6.8,15.1-15.1,15.1c-3.1,0-6.1-1-8.5-2.6l-0.3-0.2l-79.9-49.9l0,0c-4.3-2.7-7.1-7.4-7.1-12.8
				c0-8.3,6.8-15.1,15.1-15.1c3.4,0,6.6,1.1,9.1,3l79,49.3l0.3,0.2l0.3,0.2L377.5,192.3z M169.8,227c4.5,2.6,7.6,7.5,7.6,13.1
				c0,8.4-6.8,15.1-15.1,15.1c-2.9,0-5.5-0.8-7.8-2.2h-0.1l-0.3-0.2l-0.3-0.2l-24.9-15.5l-0.3-0.2l-0.3-0.2l0,0
				c-4.2-2.7-6.9-7.4-6.9-12.7c0-8.3,6.8-15.1,15.1-15.1c3.2,0,6.1,1,8.5,2.7l24.5,15.3L169.8,227z M88,340.3l-30.5-19l-0.3-0.2
				l-0.1-0.1c-2.3-1.5-5.1-2.3-8-2.3c-8.3,0-15.1,6.7-15.1,15.1c0,5.7,3.2,10.7,7.9,13.3l30.4,19l0.2,0.1c2.4,1.6,5.2,2.5,8.3,2.5
				c8.3,0,15.1-6.7,15.1-15.1C95.9,347.8,92.7,342.9,88,340.3L88,340.3z M131.9,370.3c3.2,0,6.1,1,8.5,2.7l28,17.4l1.7-3.1
				c5.1-9.5,10.9-18.6,17.4-27.1l2.2-2.9L78.8,288c-4.6-2.6-7.7-7.6-7.7-13.2c0-8.3,6.8-15.1,15.2-15.1c3.3,0,6.4,1.1,8.9,2.9
				l118.5,74c16.8,10.4,17.3,16.5,2.9,32.4l-2.7,3.2c-7.8,9.4-14.6,19.6-20.1,30.5l-0.7,1.4c-10.7,21.7-15.7,26.9-38.3,13.4
				l-30.5-19l-0.9-0.5l-0.1-0.1l0,0c-4-2.7-6.6-7.3-6.6-12.5C116.8,377,123.6,370.3,131.9,370.3L131.9,370.3z M87.6,422.2
				c4.5,2.6,7.6,7.5,7.6,13.1c0,8.4-6.8,15.1-15.1,15.1c-3.2,0-6.2-1-8.6-2.7l0,0l-54.2-33.8c-4.6-2.6-7.7-7.5-7.7-13.2
				c0-8.3,6.8-15.1,15.1-15.1c3,0,5.7,0.8,8,2.3l0.1,0.1l0.3,0.2l54.4,33.9L87.6,422.2L87.6,422.2z M287.8,629.2
				c4,2.7,6.5,7.3,6.5,12.5c0,8.4-6.8,15.1-15.1,15.1c-3.3,0-6.4-1.1-8.9-2.9l-25.2-15.7l-0.3-0.2l-0.3-0.2l0,0
				c-4-2.7-6.6-7.3-6.6-12.5c0-8.3,6.8-15.1,15.1-15.1c2.7,0,5.3,0.7,7.5,2h0.1l1,0.6L287.8,629.2L287.8,629.2z M168.4,472.6
				c4.2,2.7,7,7.4,7,12.8c0,8.4-6.8,15.1-15.1,15.1c-3.3,0-6.4-1.1-8.8-2.9l-27.9-17.4l-0.3-0.2l-0.3-0.2l0,0
				c-4.1-2.7-6.7-7.3-6.7-12.6c0-8.4,6.8-15.1,15.1-15.1c3.3,0,6.3,1,8.7,2.8L168.4,472.6L168.4,472.6z M418.5,300.1L209.9,169.9
				l0,0c-2.4-1.6-5.2-2.5-8.3-2.5c-8.4,0-15.2,6.7-15.2,15.1c0,5.7,3.1,10.7,7.8,13.2l138.9,86.7l-9.7,1c-15.2,1.6-30.2,5-44.6,10.1
				l-1.5,0.5l-55-34.3c-2.4-1.7-5.4-2.7-8.6-2.7c-8.3,0-15.1,6.7-15.1,15.1c0,5.4,2.9,10.2,7.1,12.9l0.1,0.1l0.3,0.2l46.8,29.2
				c17,10.2,15.5,11.9,44.4,2.7l8.3-2.2l7.8-1.6l4.5-0.8c9-1.5,18.1-2.1,27.2-2.1c13.6,0,27.2,1.7,40.5,5c7.2,1.8,14.4,4.1,21.3,6.8
				h0.1l0,0c1.6,0.7,3.4,1.2,5.3,1.2c6.9,0,12.5-5.6,12.5-12.4C425.1,306.3,422.4,302.2,418.5,300.1L418.5,300.1z M420.9,140
				c2.4,0,4.7,0.6,6.7,1.6l0.3,0.1l56,34.9c5.1,3.2,9.1,4.9,11,11.3c0.4,1.3,0.6,2.7,0.6,4.2c0,8.4-6.8,15.2-15.2,15.2
				c-2.7,0-5.3-0.7-7.5-2l0,0c-0.4-0.2-0.7-0.5-1.1-0.7l-47.8-29.8l-9.9-6.2c-4.9-2.5-8.2-7.6-8.1-13.4
				C405.8,146.8,412.6,140,420.9,140L420.9,140z M434.5,263.4l-0.2-0.1l0,0L412.8,250l0.1,0.1l-0.3-0.2l-0.2-0.1
				c-4.1-2.7-6.8-7.4-6.8-12.6c0-8.3,6.8-15.1,15.1-15.1c3.2,0,6.1,1,8.6,2.7l20.7,13.1c4.4,2.6,7.4,7.4,7.4,12.9
				c0,8.3-6.7,14.9-15,14.9C439.4,265.6,436.7,264.8,434.5,263.4L434.5,263.4z M116.3,697.2L116.3,697.2L116.3,697.2l-0.2-0.2
				l-0.1-0.1l0,0l-0.1-0.1c-1.9-2-3.7-4-5.5-6l0,0l-0.1-0.1c-2.7-3.3-6.8-5.5-11.4-5.5c-8.1,0-14.7,6.5-14.7,14.6
				c0,3.5,1.3,6.8,3.3,9.3v0.1l0.2,0.2l0,0l0.1,0.1l0.1,0.1l0,0l0.1,0.1l0.1,0.1l0,0c2.1,2.3,4.1,4.6,6.3,6.8l0,0l0.1,0.1l0.1,0.1
				l0.5,0.5h0.1l0.1,0.1l0.1,0.1c2.6,2.5,6.2,4.1,10.1,4.1c8.1,0,14.6-6.5,14.6-14.6C120.2,703.4,118.8,699.8,116.3,697.2
				L116.3,697.2z M324.9,655c-8.4,0-15.2,6.7-15.2,15.1c0,5.6,3.1,10.5,7.6,13.2l149.2,93c26.6,16.9,39.1,21.8,65,5l-0.1-0.1
				l4.6-2.9c10-6.2,19.6-13,28.9-20.2l1.8-1.4l0.2,0.1c24.1-19.1,16.3-25.7-3.9-38l-131.8-82.2c-2.4-1.7-5.4-2.7-8.6-2.7
				c-8.4,0-15.2,6.7-15.2,15.1c0,5.7,3.1,10.6,7.7,13.2l125,78l-4.1,2.9c-10,7.1-20.4,13.6-31.2,19.6l-1.7,0.9l-170-106.2l-0.3-0.2
				l0,0C330.4,655.8,327.8,655,324.9,655L324.9,655z M654.1,611.4L654.1,611.4l-0.4-0.2l-0.3-0.2l-0.3-0.2l-117.6-73.4
				c-22.2-13.8-25.6-7.2-34.3,11.3c-5.2,11.9-11.7,23.2-19.5,33.6c-17.9,24-21.5,26.5,8,44.2l21.6,13.5l11.1,6.9l0.3,0.2l0,0
				c2.3,1.5,5.1,2.3,8.1,2.4c8.3,0,15.1-6.7,15.1-15.1c0-5.6-3.1-10.5-7.6-13.1l-0.3-0.2l-34-21.2l2.1-2.9
				c6.3-8.7,11.9-18,16.7-27.6l1.6-3.3l98.6,61.5l13.8,8.6l0.3,0.2c2.4,1.6,5.3,2.6,8.5,2.6c8.3,0,15.1-6.8,15.1-15.1
				C660.8,618.7,658.1,614.1,654.1,611.4L654.1,611.4z M604.3,498.2c0.4,0.2,0.7,0.4,0.9,0.6c4,2.7,6.7,7.3,6.7,12.5
				c0,8.3-6.8,15.1-15.1,15.1c-3.2,0-6.2-1-8.6-2.8l-59.9-37.4l0,0c-4.3-2.7-7.2-7.5-7.1-12.9c0-8.3,6.8-15.1,15.1-15.1
				c3.3,0,6.3,1,8.8,2.8L604.3,498.2z M861,411.9L861,411.9l-22.8-14.2c-2.5-1.8-5.5-2.8-8.7-2.8c-8.4,0-15.1,6.7-15.1,15.1
				c0,5.2,2.6,9.9,6.7,12.6l0,0l0.3,0.2l0.3,0.2l22.4,14c2.5,1.8,5.5,2.9,8.8,2.9c8.3,0,15.1-6.7,15.1-15.1
				C868,419.3,865.2,414.6,861,411.9L861,411.9z M680.1,545.5c4.2,2.7,7,7.4,7,12.7c0,8.4-6.8,15.1-15.1,15.1
				c-3.3,0-6.3-1.1-8.8-2.9l-22.4-14l-0.3-0.2l-0.3-0.2c-4-2.7-6.7-7.4-6.7-12.6c0-8.3,6.8-15.1,15.2-15.1c3.2,0,6.3,1,8.7,2.8
				L680.1,545.5L680.1,545.5z M653,364.3c4.7,2.6,7.8,7.6,7.8,13.3c0,8.3-6.8,15.1-15.1,15.1c-3,0-5.9-0.9-8.3-2.5l-0.2-0.1
				l-37.4-23.4l-23.1-14.4c-17.1-10.2-21.9-17.4-9.7-41.6l0,0c5.8-11.8,12.4-23.2,20-34.1c14-21.2,23.3-21,41.1-10l48.5,30.3
				l62.2,38.9c4.8,2.5,8.1,6.3,8.1,13.4s-9.3,15.1-15.1,15.1s-6.2-1-8.7-2.8l-61.9-38.6l-47.7-29.8l0,0
				c-7.7,10.7-14.3,22.2-19.9,34.1L653,364.3z M690.9,223.6c4.5,2.6,7.6,7.5,7.6,13.1c0,8.3-6.8,15.1-15.1,15.1
				c-2.9,0-5.5-0.8-7.8-2.2l0,0l-0.3-0.2l-0.3-0.2l-29.3-18.7l-0.3-0.2l-0.3-0.2l0,0c-4.2-2.7-6.9-7.4-6.9-12.7
				c0-8.3,6.8-15.1,15.2-15.1c3.2,0,6.1,1,8.5,2.6l28.9,18.5L690.9,223.6z M854.3,161.4c4.1,2.7,6.8,7.4,6.8,12.6
				c0,8.3-6.8,15.1-15.1,15.1c-3.1,0-6.1-1-8.5-2.6l-0.3-0.2l-19-11.8l-9.5-5.9l0,0c-4.3-2.7-7.1-7.4-7.1-12.8
				c0-8.4,6.8-15.1,15.1-15.1c3.4,0,6.6,1.1,9.1,3l27.6,17.2l0.3,0.2l0.3,0.2L854.3,161.4z M957.5,225.8c4.1,2.7,6.8,7.4,6.8,12.6
				c0,8.4-6.8,15.1-15.1,15.1c-3.1,0-6-1-8.4-2.6l-0.3-0.2l-34.1-21.3l-15.9-9.9l0,0c-4.3-2.7-7.1-7.4-7.1-12.8
				c0-8.4,6.8-15.1,15.1-15.1c3.4,0,6.5,1.1,9.1,3.1l49.1,30.7l0.3,0.2l0.3,0.2H957.5z M720.5,406.4L720.5,406.4l-11.6-7.2
				c-2.5-1.8-5.5-2.8-8.7-2.8c-8.4,0-15.2,6.7-15.2,15.1c0,5.2,2.7,9.9,6.7,12.6l0,0l0.3,0.2l0.3,0.2l11.2,7
				c2.5,1.8,5.5,2.8,8.8,2.9c8.4,0,15.1-6.7,15.1-15.1C727.5,413.8,724.7,409.1,720.5,406.4L720.5,406.4z M617.8,670.8
				c4.2,2.7,7,7.4,7,12.8c0,8.4-6.8,15.1-15.1,15.1c-3.3,0-6.4-1.1-8.8-2.9l-22.4-14l-0.3-0.2l-0.3-0.2c-4-2.7-6.7-7.3-6.7-12.6
				c0-8.3,6.8-15.1,15.2-15.1c3.3,0,6.3,1,8.7,2.8L617.8,670.8L617.8,670.8z M757.3,432c3.2,0,6.2,1,8.6,2.7l66.3,41.4
				c19.3,14,29.8,16.2,21.8,36.7l-0.2,0.4l-0.2,0.5l-0.1,0.2l-0.1,0.2l-0.2,0.4l-0.2,0.4l-0.2,0.4v0.1l-0.2,0.4l-0.2,0.4l-0.2,0.4
				l-0.2,0.3l-0.1,0.1l-0.2,0.4l-0.2,0.4l-0.2,0.4l-0.1,0.2l-0.1,0.2l-0.4,0.8l-0.2,0.4l0,0l-0.2,0.4l-0.2,0.4l-0.2,0.4l-0.1,0.3
				l-0.1,0.1l-0.2,0.4l-0.2,0.4c-6.7,12.1-15.9,21.9-28.1,28.9l0,0l-0.5,0.3l-0.1,0.1l-0.3,0.2l-1,0.6l-0.1,0.1L818,553l-0.1,0.1
				l-0.2,0.1l-0.4,0.2l-0.5,0.3l-0.5,0.3l-0.1,0.1l-0.4,0.2l-1,0.5l0,0l-0.1,0.1h-0.1l-1.4,0.6h-0.1l-0.4,0.2l-1.1,0.4l-0.1,0.1
				l-0.4,0.2l-0.6,0.2l-0.6,0.2h-0.1l-0.5,0.2l-0.6,0.2l-0.6,0.2H808l-0.5,0.1l-0.6,0.2c-14.2,4.7-20.7,5.7-42.4-6.4
				c-44.4-27.7-5-3.1-49.5-30.8c-4.6-2.6-7.7-7.6-7.7-13.2c0-8.3,6.8-15.1,15.1-15.1c2.9,0,5.7,0.9,8,2.3l0.1,0.1l0.3,0.2
				c47,29.3,10.2,6.4,57.2,35.7c10.4-1.9,20.3-5.9,27.6-13.9c2.8-3.1,5.3-6.7,7.4-10.8l-51.5-32.2l-21.6-13.5
				c-4.6-2.6-7.7-7.5-7.7-13.2C742.1,438.7,748.9,432,757.3,432L757.3,432z M940.8,174.7l-9.6-6l0.1,0.1l-0.3-0.2l-0.2-0.1
				c-4.1-2.7-6.8-7.3-6.8-12.6c0-8.3,6.8-15.1,15.2-15.1c3.2,0,6.1,1,8.6,2.7l9.5,5.9c0.4,0.2,0.8,0.5,1.1,0.8v0.1
				c4,2.7,6.6,7.3,6.6,12.5c0,8.3-6.8,15-15.1,15C946.4,177.7,943.3,176.6,940.8,174.7L940.8,174.7z"/>
		</g>
	</g>
</g>
</svg>
