<?xml version="1.0" encoding="utf-8"?>
<!-- Generator: Adobe Illustrator 25.2.1, SVG Export Plug-In . SVG Version: 6.00 Build 0)  -->
<svg version="1.1" id="Layer_1" xmlns="http://www.w3.org/2000/svg" xmlns:xlink="http://www.w3.org/1999/xlink" x="0px" y="0px"
	 viewBox="0 0 2500.71 984.32" style="enable-background:new 0 0 2500.71 984.32;" xml:space="preserve">
<g>
	<path d="M36.89,70.14h602.95v171.3H236.56v174.93h346.02v171.17H236.56v166.75H645.5v171.3H36.89V70.14z"/>
	<path d="M1147.55,474.75h325.26v309.14c-22.23,25.98-47.51,49.11-75.81,69.43c-28.31,20.33-58.51,37.39-90.59,51.22
		s-65.34,24.27-99.72,31.41c-34.39,7.11-68.57,10.67-102.53,10.67c-43.2,0-84.73-5.35-124.57-16.03
		c-39.85-10.67-77.08-25.67-111.68-44.94c-34.6-19.28-66.04-42.55-94.32-69.79c-28.28-27.23-52.58-57.51-72.91-90.84
		c-20.33-33.32-36.04-69.26-47.14-107.82s-16.65-78.79-16.65-120.69c0-41.48,5.55-81.4,16.65-119.76
		c11.1-38.34,26.82-74.17,47.14-107.49c20.33-33.32,44.63-63.6,72.91-90.84c28.28-27.24,59.72-50.61,94.32-70.1
		c34.6-19.49,71.82-34.58,111.68-45.27c39.84-10.67,81.36-16.03,124.57-16.03c68.36,0,132.01,12.97,190.94,38.9
		c58.92,25.94,109.77,61.09,152.56,105.42l-141.56,120.71c-24.34-28.93-53.79-51.77-88.39-68.56
		c-34.6-16.78-72.45-25.17-113.55-25.17c-36.91,0-71.73,7.13-104.44,21.38c-32.71,14.25-61.23,33.84-85.57,58.77
		c-24.34,24.94-43.51,54.39-57.57,88.33c-14.06,33.96-21.07,70.63-21.07,110.02c0,39.41,7.01,76.08,21.07,110.02
		c14.06,33.96,33.24,63.4,57.57,88.33c24.34,24.94,52.86,44.53,85.57,58.79s67.52,21.36,104.44,21.36c31.45,0,61.74-5.09,90.91-15.3
		c29.15-10.2,55.47-24.66,78.95-43.42v-96.82h-127.08L1147.55,474.75z"/>
	<path d="M1528.5,496.5c0-41.56,5.55-81.45,16.67-119.66c11.1-38.21,26.83-74.01,47.18-107.39c20.33-33.37,44.65-63.6,72.96-90.69
		c28.31-27.08,59.76-50.38,94.35-69.9c34.58-19.52,71.81-34.53,111.64-45.04c39.84-10.49,81.35-15.75,124.55-15.75
		c42.76,0,84.07,5.25,123.91,15.75c39.84,10.51,77.14,25.52,111.96,45.04c34.81,19.52,66.47,42.83,94.98,69.9
		c28.51,27.09,52.94,57.32,73.29,90.69c20.33,33.38,36.06,69.18,47.18,107.39c11.1,38.21,16.67,78.1,16.67,119.66
		c0,41.58-5.57,81.46-16.67,119.67c-11.12,38.21-26.85,74.01-47.18,107.38c-20.35,33.38-44.78,63.71-73.29,91
		c-28.51,27.29-60.17,50.61-94.98,69.92c-34.81,19.31-72.12,34.32-111.96,45.03s-81.15,16.06-123.91,16.06
		c-43.2,0-84.71-5.35-124.55-16.06s-77.06-25.71-111.64-45.03c-34.6-19.31-66.04-42.63-94.35-69.92
		c-28.31-27.29-52.63-57.62-72.96-91c-20.35-33.37-36.08-69.16-47.18-107.38C1534.05,577.97,1528.5,538.08,1528.5,496.5z
		 M1727.12,496.82c0,39.52,7.03,76.21,21.08,110.04c14.06,33.84,33.25,63.17,57.59,87.97c24.34,24.8,52.86,44.24,85.58,58.33
		c32.71,14.09,67.54,21.12,104.47,21.12c37.75,0,72.99-7.03,105.72-21.12c32.73-14.09,61.15-33.53,85.27-58.33
		c24.12-24.8,43.22-54.12,57.28-87.97c14.06-33.83,21.08-70.51,21.08-110.04c0-39.51-7.03-76.19-21.08-110.04
		c-14.06-33.83-33.15-63.15-57.28-87.95c-24.12-24.8-52.55-44.24-85.27-58.33c-32.73-14.09-67.97-21.13-105.72-21.13
		c-36.93,0-71.76,7.04-104.47,21.13c-32.73,14.09-61.25,33.53-85.58,58.33c-24.34,24.8-43.53,54.12-57.59,87.95
		C1734.15,420.62,1727.12,457.31,1727.12,496.82z"/>
</g>
</svg>
