<?xml version="1.0" encoding="utf-8"?>
<!-- Generator: Adobe Illustrator 25.3.1, SVG Export Plug-In . SVG Version: 6.00 Build 0)  -->
<svg version="1.1" id="Layer_1" xmlns="http://www.w3.org/2000/svg" xmlns:xlink="http://www.w3.org/1999/xlink" x="0px" y="0px"
	 viewBox="0 0 800 800" style="enable-background:new 0 0 800 800;" xml:space="preserve">
<style type="text/css">
	.st0{fill:#A0D1CA;}
	.st1{fill:#FFFFFF;}
</style>
<g>
	<circle class="st0" cx="400" cy="400" r="400"/>
	<g>
		<g>
			<path class="st1" d="M173.45,578.04c-2.22,0-7.31-0.08-15.14-0.24c0.16-5.49,0.41-17.23,0.73-34.9
				c0.24-8.82,0.41-16.37,0.49-22.45v-10.49c0-0.02,0-0.04-0.01-0.06l-0.38-1.38c-1.58-3.24-5.09-4.92-10.44-5
				c-0.9,0-3.74,0.2-8.68,0.61c-1.03,0.09-1.9,0.54-2.59,1.36c-0.69,0.82-0.99,1.77-0.91,2.84c0.09,1.07,0.54,1.96,1.36,2.65
				c0.81,0.68,1.8,0.99,2.9,0.9c4.61-0.41,7.16-0.61,7.79-0.61c1.41,0,2.49,0.14,3.2,0.41v8.63c-0.08,6.19-0.21,13.74-0.37,22.44
				c-0.41,18.64-0.68,30.11-0.85,35.03c-5.38-0.08-10.15,0.01-14.19,0.25c0,0,0,0-0.01,0c-1.03,0.09-1.92,0.52-2.64,1.29
				c-0.73,0.78-1.06,1.72-0.97,2.79c0.09,1.07,0.52,1.98,1.29,2.7c0.69,0.66,1.54,0.99,2.5,0.99c0.11,0,0.23-0.01,0.34-0.01
				c5.32-0.16,9.4-0.24,12.13-0.24c2.71,0,6.7,0.04,12.19,0.12c5.31,0.08,9.43,0.12,12.26,0.12c1.03,0,1.95-0.39,2.71-1.16
				c0.77-0.77,1.16-1.68,1.16-2.72c0-1.03-0.39-1.95-1.16-2.71C175.39,578.43,174.48,578.04,173.45,578.04z"/>
			<path class="st1" d="M205.85,528.47c-1.62-1.39-4.28-2.42-7.89-3.09c-0.33-0.05-1.13-0.18-2.45-0.43
				c-1.24-0.22-2.26-0.42-2.95-0.57c-0.64-0.14-1.28-0.33-1.9-0.57c-1.8-0.65-2.87-1.62-3.19-2.89c-0.46-1.99-0.26-3.58,0.62-4.73
				c0.87-1.15,2.28-1.92,4.19-2.3c1.96-0.47,4.01-0.44,6.09,0.07c2.07,0.51,3.69,1.38,4.8,2.59c0.01,0.01,0.03,0.02,0.04,0.03
				c0.09,2.48,0.14,3.93,0.14,4.43c0,0.6,0.23,1.14,0.68,1.58c0.45,0.45,0.98,0.68,1.59,0.68c0.6,0,1.13-0.23,1.58-0.68
				s0.68-0.98,0.68-1.59c0-1-0.05-2.29-0.14-3.95c-0.09-1.61-0.14-2.81-0.14-3.58c0-0.76,0.09-1.95,0.28-3.53
				c0.1-0.61-0.04-1.17-0.42-1.67c-0.37-0.5-0.88-0.8-1.51-0.9c-0.63-0.1-1.2,0.04-1.7,0.42c-0.5,0.38-0.8,0.88-0.9,1.51
				c-0.09,0.53-0.13,1.09-0.14,1.69c-1.71-0.9-3.65-1.49-5.76-1.76c-2.19-0.29-4.26-0.21-6.16,0.22c-2.96,0.62-5.23,1.95-6.76,3.96
				c-1.82,2.35-2.3,5.23-1.45,8.58c0.72,2.88,2.76,4.92,6.05,6.06c0.58,0.24,1.25,0.46,2.01,0.65c0.76,0.19,1.4,0.33,1.93,0.43
				l2.21,0.43c0.9,0.14,1.52,0.24,1.84,0.28c2.85,0.52,4.82,1.22,5.84,2.1c1.24,1.01,1.67,2.76,1.3,5.22
				c-0.23,1.7-0.98,2.89-2.24,3.53c-1.28,0.65-3.03,0.86-5.22,0.62c-1.92-0.23-3.9-0.76-5.9-1.55c-1.97-0.79-3.6-1.65-4.86-2.58
				c-0.14-2.52-0.19-4.55-0.14-6.04c0-0.6-0.22-1.14-0.64-1.62c-0.43-0.48-0.95-0.72-1.55-0.72c-0.6,0-1.14,0.21-1.62,0.64
				c-0.48,0.43-0.72,0.95-0.72,1.55c-0.05,1.55,0.02,3.87,0.21,6.91c0.19,3.15,0.29,5.28,0.29,6.53c0,0.6,0.23,1.14,0.68,1.59
				c0.45,0.45,0.98,0.68,1.59,0.68c0.6,0,1.14-0.23,1.59-0.68s0.68-0.98,0.68-1.59c0-0.53-0.02-1.11-0.06-1.76
				c3.21,1.69,6.55,2.73,9.93,3.1c3.18,0.38,5.82,0.02,7.83-1.08c2.63-1.34,4.21-3.67,4.69-6.92
				C209.38,533.7,208.39,530.58,205.85,528.47z"/>
			<path class="st1" d="M241.6,529.72c-0.6,0-1.14,0.23-1.59,0.68c-0.45,0.45-0.68,0.98-0.68,1.58c0,1.51-0.01,2.55-0.04,3.09
				c-0.02,0.54-0.13,1.24-0.32,2.08c-0.18,0.83-0.49,1.53-0.9,2.08c-0.65,0.88-1.43,1.55-2.33,1.99c-0.9,0.44-1.81,0.64-2.67,0.59
				c-1.95-0.09-3.19-1.11-3.79-3.11c-0.75-2.35-1.16-4.73-1.2-7.07c-0.05-2.36,0.15-5.5,0.6-9.33c0.43-3.71,0.71-6.32,0.81-7.74
				c4.13-0.05,7.82-0.12,10.97-0.21c0.6,0,1.13-0.24,1.55-0.72c0.42-0.47,0.64-1.02,0.64-1.61c0-0.61-0.24-1.13-0.72-1.56
				c-0.47-0.42-1.02-0.64-1.62-0.64c-3.1,0.09-6.71,0.16-10.74,0.21v-3.21c-0.05-3.11-0.02-5.47,0.07-7.03
				c0.05-0.6-0.14-1.15-0.57-1.63c-0.42-0.47-0.95-0.74-1.55-0.79c-0.61-0.06-1.15,0.14-1.62,0.57c-0.47,0.42-0.74,0.95-0.79,1.55
				c-0.09,1.7-0.12,4.19-0.07,7.4v3.14h-5.7c-0.6,0-1.14,0.23-1.59,0.68c-0.45,0.45-0.68,0.99-0.68,1.59c0,0.6,0.23,1.13,0.68,1.58
				s0.98,0.68,1.59,0.68h5.62c-0.1,1.26-0.3,3.2-0.59,5.76c-0.3,2.62-0.53,4.87-0.68,6.69c-0.14,1.76-0.13,3.88,0.03,6.31
				c0.17,2.44,0.56,4.71,1.18,6.75c0.62,1.96,1.65,3.49,3.07,4.54c1.41,1.05,3.05,1.64,4.87,1.73c0.18,0.01,0.36,0.02,0.54,0.02
				c1.49,0,2.96-0.36,4.36-1.06c1.58-0.79,2.91-1.91,3.96-3.35c0.28-0.42,0.54-0.86,0.79-1.33c0.23-0.44,0.43-0.85,0.57-1.22
				c0.14-0.36,0.28-0.82,0.4-1.37c0.13-0.59,0.2-0.98,0.25-1.25c0.05-0.29,0.08-0.74,0.11-1.33c0.02-0.59,0.04-0.99,0.04-1.18v-2.28
				c0-0.6-0.23-1.14-0.68-1.58C242.74,529.95,242.2,529.72,241.6,529.72z"/>
			<path class="st1" d="M366.4,517.12c-2.75,0.16-5.6,0.26-8.47,0.3c-2.87,0.04-6.48,0.04-10.73,0c-4.37-0.04-7.18-0.06-8.6-0.06
				c-1.03,0-1.94,0.39-2.72,1.16c-0.77,0.77-1.16,1.68-1.16,2.71c0,1.03,0.39,1.95,1.16,2.72c0.77,0.77,1.68,1.16,2.72,1.16
				c0.9,0,3.72,0.03,9.71,0.12c-2.5,8.58-5.92,18.41-10.16,29.22c-2.42,6.01-4.8,11.41-7.06,16.06l-3.26-11.16
				c-2.12-7.64-3.92-13.52-5.37-17.45c-0.65-1.86-2.09-5.31-4.28-10.26c-0.99-2.2-1.77-4.03-2.32-5.44
				c4.42-0.17,8.27-0.71,11.44-1.58c1.11-0.26,1.94-0.85,2.46-1.75c0.51-0.9,0.64-1.9,0.39-2.96c-0.26-1.07-0.84-1.88-1.75-2.4
				c-0.9-0.52-1.88-0.65-2.91-0.39c-2.1,0.57-4.53,0.97-7.22,1.21c-2.72,0.24-5.07,0.36-6.99,0.36c-1.94,0-4.69-0.04-8.17-0.12
				c-3.68-0.08-6.09-0.12-7.56-0.12c-1.03,0-1.95,0.39-2.72,1.16c-0.77,0.77-1.16,1.69-1.16,2.72c0,1.03,0.39,1.95,1.16,2.72
				c0.77,0.77,1.68,1.16,2.72,1.16c1.29,0,3.34,0.02,6.09,0.06c2.64,0.04,4.64,0.1,5.95,0.17c0.82,2.19,1.99,5.02,3.49,8.42
				c2.09,4.59,3.49,7.83,4.14,9.62c1.37,3.88,3.14,9.58,5.24,16.94c2.64,9.24,4.36,14.95,5.24,17.42c0.08,0.39,0.22,0.74,0.44,1.07
				c-1.26,2.11-2.45,3.73-3.55,4.84c-3.06,3.22-7.26,6.16-12.5,8.73c-2.79,1.35-5.12,1.84-6.94,1.45c-0.82-0.14-1.62-0.49-2.38-1.05
				c0.99-0.38,1.73-1.07,2.18-2.07c1.47-3.53,1.97-6.32,1.47-8.31c-0.51-1.86-1.67-3.06-3.44-3.57c-1.18-0.34-2.46-0.25-3.79,0.25
				c-1.66,0.58-3.21,1.71-4.6,3.35c-1.65,1.82-2.57,3.71-2.74,5.62c-0.08,1.26,0.21,2.57,0.89,3.91c0.15,0.23,0.35,0.58,0.62,1.11
				c0.24,0.33,0.4,0.55,0.47,0.71c2.38,4.35,5.71,6.93,9.91,7.67c0.83,0.16,1.69,0.24,2.58,0.24c2.79,0,5.85-0.78,9.14-2.33
				c6.01-2.92,10.99-6.39,14.82-10.29c4.47-4.72,10.19-15.78,17-32.88c4.98-12.46,8.7-23.24,11.06-32.06
				c3.95-0.08,7.5-0.2,10.58-0.36c1.02-0.09,1.91-0.52,2.64-1.29c0.73-0.77,1.06-1.71,0.98-2.79c-0.09-1.07-0.52-1.98-1.29-2.7
				C368.47,517.37,367.54,517.04,366.4,517.12z"/>
			<path class="st1" d="M439.85,535.85c-0.98-7.02-3.82-12.34-8.44-15.82c-4.62-3.47-10.04-5.04-16.06-4.62
				c-5.79,0.33-11.23,2.31-16.15,5.9c-4.94,3.59-8.35,8.39-10.14,14.26c-2.28,7.4-2.83,14.14-1.65,20.05
				c1.18,5.9,3.41,10.9,6.63,14.85c3.22,3.96,7.21,6.87,11.86,8.67c3.2,1.22,6.32,1.83,9.34,1.83c3.83,0,7.49-0.98,10.97-2.95
				c6.86-3.92,11-10.7,12.3-20.16c0-0.01,0-0.01,0-0.01c0.08-1.03-0.2-1.98-0.84-2.83c-0.65-0.86-1.49-1.36-2.53-1.49
				c-1.03-0.12-1.99,0.13-2.84,0.78c-0.86,0.64-1.38,1.49-1.55,2.52c-0.88,6.97-3.68,11.84-8.3,14.47c-4.15,2.31-8.8,2.52-13.84,0.6
				c-4.24-1.6-7.78-4.65-10.5-9.06c-2.67-4.32-3.82-9.65-3.41-15.84c0.52,0.3,1.11,0.45,1.76,0.45c0.81,0,3.55,0.24,8.15,0.73
				c5.41,0.57,9.72,0.94,12.81,1.1c5.27,0.41,9.5,0.53,12.59,0.37c2.03-0.08,3.73-0.29,5.05-0.62c2.16-0.58,3.68-1.6,4.52-3.03
				c0.26-0.42,0.43-0.95,0.52-1.58c0-0.14,0.04-0.33,0.11-0.54c0.01-0.02,0.01-0.05,0.01-0.07v-1.1c0-0.71-0.04-1.6-0.12-2.69
				C440.01,537.92,439.93,536.51,439.85,535.85z M432.42,541.66c-0.79,0.08-1.73,0.15-2.8,0.22c-2.74,0.16-6.68,0.04-11.68-0.37
				c-2.46-0.16-6.69-0.53-12.55-1.1c-4.86-0.49-7.7-0.73-8.68-0.73c-0.22,0-0.45,0.02-0.68,0.06c0.15-0.61,0.32-1.23,0.53-1.85
				c1.28-4.24,3.76-7.73,7.36-10.37c3.6-2.64,7.63-4.15,11.95-4.47c4.16-0.23,7.78,0.79,10.77,3.07c2.98,2.27,4.82,5.89,5.47,10.78
				c0.05,0.28,0.14,1.11,0.24,3.49C432.34,540.87,432.36,541.29,432.42,541.66z"/>
			<path class="st1" d="M522.39,559.26c-0.32-1.92-0.48-3.31-0.48-4.11c0-1.04-0.39-1.93-1.17-2.66c-0.77-0.73-1.71-1.1-2.77-1.1
				c-1.07,0-1.99,0.39-2.72,1.17c-0.73,0.77-1.1,1.72-1.1,2.83c0,1.06,0.16,2.72,0.49,4.91c0.33,2.39,0.53,4.02,0.61,4.99
				c0.24,3.26-0.11,5.51-1.05,6.68c-1,1.23-2.35,1.4-4.13,0.55c-1.02-0.47-1.96-1.17-2.8-2.08c-0.83-0.9-1.36-1.8-1.6-2.66
				c-0.72-2.24-0.96-5.86-0.72-10.77c0.08-1.27,0.26-3.52,0.55-6.89c0.28-3.29,0.47-5.86,0.55-7.63c0.16-2.77,0.14-5.29-0.06-7.47
				c-0.2-2.2-0.61-4.61-1.22-7.17c-0.61-2.58-1.71-4.9-3.27-6.91c-1.56-2.01-3.59-3.69-6.04-4.99c-4.42-2.54-9.83-3.18-16.07-1.91
				c-6.25,1.27-10.99,4.02-14.1,8.19c-2.47,3.3-3.3,6.6-2.48,9.82c0.66,2.57,2.21,4.62,4.6,6.1c0.99,0.66,2.05,1.09,3.14,1.26
				c1.95,0.25,3.48-0.26,4.59-1.53c1.36-1.53,1.53-3.38,0.52-5.49c-0.49-0.99-1.37-2.12-2.61-3.36c-0.68-0.61-1.45-0.95-2.27-1.02
				c0.16-0.37,0.4-0.75,0.72-1.13c1.91-2.62,5.06-4.4,9.38-5.28c4.32-0.88,8-0.52,10.95,1.08c2.46,1.35,4.19,3.45,5.14,6.22
				c0.95,2.78,1.44,6.43,1.45,10.86c-1.04,0.33-2.43,0.8-4.13,1.42c-2.26,0.89-3.97,1.5-5.1,1.82c-0.65,0.16-2.73,0.53-6.2,1.09
				c-3.41,0.57-6.04,1.06-7.82,1.47c-7.27,1.8-12,5.04-14.05,9.63c-0.66,1.32-1.04,3.16-1.12,5.46v4.27
				c0.08,3.45,1.08,6.33,2.98,8.55c1.89,2.22,4.34,3.84,7.29,4.82c4.65,1.55,9.98,1.8,15.84,0.74c4.65-0.88,9.04-3.13,13.06-6.69
				c1.64,3.16,4.13,5.56,7.41,7.16c1.48,0.74,2.98,1.2,4.47,1.36c0.31,0.03,0.63,0.05,0.95,0.05c1.21,0,2.48-0.25,3.79-0.74
				c1.66-0.62,3.13-1.73,4.36-3.3c2.22-2.79,3.18-6.86,2.85-12.1C522.92,563.55,522.71,561.7,522.39,559.26z M497.19,563.25
				c-3.68,4.53-7.84,7.23-12.38,8.03c-4.58,0.89-8.64,0.77-12.09-0.36c-3.27-1.12-4.9-3.08-4.97-6.01v-3.89
				c0.08-1.36,0.2-2.28,0.34-2.72c1.02-2.2,4.01-3.93,8.88-5.12c1.62-0.4,4.08-0.85,7.3-1.34c3.32-0.57,5.66-1.02,6.97-1.34
				c1.3-0.33,3.28-1.03,5.87-2.08l0.78-0.26c-0.39,4.97-0.58,7.82-0.58,8.46C497.16,559.16,497.12,561.39,497.19,563.25z"/>
			<path class="st1" d="M598.27,527.63c-0.33-0.82-0.95-2.1-1.84-3.8c-0.53-0.97-0.92-1.71-1.22-2.32c-0.59-1-1.12-1.7-1.63-2.12
				c-3.29-3.04-8.02-4.25-14.08-3.59c-5.14,0.57-9.44,2.19-12.8,4.8c-0.75,0.6-1.5,1.3-2.24,2.1c-0.93-1.92-2.48-3.38-4.6-4.32
				c-1.49-0.74-3.95-1.04-7.3-0.88c-4.1,0.21-5.01,0.17-5.18,0.13c-0.01,0-0.02-0.01-0.03-0.01c-1.03-0.07-1.98,0.22-2.84,0.9
				c-0.86,0.69-1.34,1.56-1.42,2.59c-0.09,1.03,0.22,1.99,0.9,2.84c0.69,0.86,1.56,1.34,2.57,1.42c0.5,0.08,2.59,0.04,6.39-0.12
				c2.57-0.1,3.46,0.03,3.74,0.16c0.38,0.18,0.65,0.36,0.8,0.56c0.15,0.73,0.1,2.34-0.14,4.77l-0.36,3.53
				c-0.16,1.38-0.25,2.49-0.25,3.31c-0.08,3.98-0.06,9.56,0.06,17.08c0.12,7.29,0.18,12.38,0.18,15.12c0,0.23,0.02,0.43,0.05,0.62
				c-3.99-0.15-7.46-0.23-10.33-0.23c-1.03,0-1.94,0.39-2.72,1.16c-0.77,0.77-1.16,1.68-1.16,2.72c0,1.03,0.39,1.94,1.16,2.72
				c0.77,0.77,1.68,1.16,2.71,1.16c3.31,0,8.4,0.16,15.11,0.49c6.81,0.4,12.03,0.61,15.5,0.61c1.03,0,1.94-0.39,2.72-1.16
				c0.77-0.77,1.16-1.69,1.16-2.72c0-1.03-0.39-1.94-1.16-2.72c-0.77-0.77-1.68-1.16-2.72-1.16c-3.17,0-7.46-0.16-12.75-0.47
				c0.11-0.34,0.16-0.68,0.16-1.02c0-2.7-0.06-7.77-0.18-15.06c-0.12-7.3-0.14-13.07-0.06-17.13c0-0.48,0.08-1.34,0.24-2.55
				l0.11-1.55c0.63-0.19,1.19-0.57,1.66-1.11c0.33-0.33,1.25-1.41,2.83-3.32c0.79-1.11,1.47-1.87,2.03-2.27
				c2.31-1.76,5.35-2.85,9.04-3.25c3.5-0.4,6.11,0.08,7.75,1.4c0.15,0.15,0.26,0.29,0.34,0.46c0.32,0.48,0.68,1.12,1.08,1.92
				c0.7,1.49,1.21,2.58,1.46,3.16c0.23,0.53,0.43,1.04,0.58,1.52c-1.54-0.79-2.99-0.53-4.31,0.79c-2.72,2.72-4.05,5.36-3.97,7.85
				c0.08,1.68,0.68,3.01,1.78,3.94c1.09,0.92,2.36,1.47,3.78,1.64c2.32,0.25,4.62-0.44,6.86-2.05c2.23-1.61,3.66-3.93,4.23-6.9
				c0.33-1.49,0.21-3.37-0.37-5.59C599.3,530.45,598.84,529.09,598.27,527.63z"/>
			<path class="st1" d="M661.93,549.86c-2.78-2.37-7.33-4.15-13.53-5.29c-0.58-0.08-2.03-0.33-4.2-0.73
				c-2.19-0.4-3.89-0.72-5.05-0.97c-1.14-0.24-2.23-0.57-3.26-0.97c-3.08-1.11-4.92-2.78-5.47-4.97c-0.79-3.42-0.44-6.14,1.06-8.11
				c1.5-1.98,3.92-3.3,7.19-3.94c3.37-0.8,6.88-0.76,10.45,0.12c3.56,0.88,6.33,2.38,8.24,4.45c0.02,0.02,0.04,0.04,0.07,0.05
				c0.16,4.24,0.24,6.73,0.24,7.61c0,1.03,0.39,1.95,1.16,2.72c0.77,0.77,1.68,1.16,2.72,1.16c1.03,0,1.94-0.39,2.72-1.16
				c0.77-0.77,1.16-1.68,1.16-2.71c0-1.69-0.08-3.98-0.24-6.78c-0.16-2.78-0.24-4.85-0.24-6.15c0-1.3,0.16-3.34,0.48-6.06
				c0.17-1.04-0.07-1.99-0.71-2.85c-0.64-0.85-1.51-1.38-2.58-1.55c-1.07-0.17-2.05,0.07-2.91,0.71c-0.86,0.64-1.38,1.51-1.55,2.58
				c-0.15,0.91-0.23,1.88-0.24,2.9c-2.94-1.53-6.26-2.55-9.88-3.02c-3.75-0.49-7.3-0.37-10.56,0.37c-5.08,1.07-8.98,3.35-11.59,6.79
				c-3.12,4.02-3.95,8.97-2.48,14.7c1.23,4.93,4.73,8.43,10.37,10.39c0.99,0.41,2.15,0.79,3.45,1.11c1.33,0.33,2.41,0.57,3.3,0.73
				l3.79,0.73c1.55,0.24,2.6,0.41,3.17,0.49c4.9,0.88,8.27,2.1,10.02,3.61c2.12,1.73,2.87,4.74,2.24,8.95
				c-0.4,2.92-1.69,4.96-3.85,6.05c-2.19,1.11-5.2,1.47-8.96,1.08c-3.3-0.4-6.71-1.3-10.12-2.67c-3.38-1.35-6.18-2.84-8.35-4.42
				c-0.24-4.33-0.32-7.82-0.24-10.37c0-1.03-0.37-1.96-1.09-2.77c-0.73-0.82-1.63-1.23-2.66-1.23c-1.02,0-1.96,0.37-2.77,1.09
				c-0.82,0.73-1.23,1.63-1.23,2.66c-0.08,2.68,0.04,6.67,0.37,11.85c0.33,5.36,0.49,9.03,0.49,11.21c0,1.03,0.39,1.94,1.16,2.72
				c0.77,0.77,1.69,1.16,2.72,1.16c1.03,0,1.95-0.39,2.72-1.16c0.77-0.77,1.16-1.68,1.16-2.72c0-0.93-0.03-1.95-0.1-3.04
				c5.5,2.9,11.23,4.69,17.05,5.33c5.47,0.65,9.98,0.03,13.42-1.85c4.52-2.3,7.23-6.29,8.05-11.87
				C667.99,558.83,666.28,553.47,661.93,549.86z"/>
		</g>
		<g>
			<g>
				<polygon class="st1" points="428.98,197.65 486.74,197.69 552.04,297.29 615.89,197.79 673.1,197.83 578.16,348.23 
					578.1,452.72 526.34,452.68 526.39,348.74 				"/>
				<polygon class="st1" points="146.82,197.42 183.13,197.45 266.71,327.4 349.7,197.57 386.01,197.59 405.56,452.56 353,452.53 
					343.15,287.58 278.51,388.44 252.72,388.97 188.59,289.2 177.95,452.4 126.9,452.36 				"/>
			</g>
		</g>
	</g>
</g>
</svg>
